<svg style="display:none" xmlns="http://www.w3.org/2000/svg" xmlns:xlink="http://www.w3.org/1999/xlink" version="1.1">
	<symbol id="Logo" viewBox="0 0 126 16" fill="none" xmlns="http://www.w3.org/2000/svg"><path d="M0.459999 0.999999H10.02V2.98H2.84V6.92H8.22V8.9H2.84V15H0.459999V0.999999Z" fill="#161616"/><path d="M23.6177 2.98H22.8977L18.6977 15H16.2577L21.2177 0.999999H25.2577L30.2377 15H27.7977L23.6177 2.98ZM18.9777 9.62H27.1377V11.58H18.9777V9.62Z" fill="#161616"/><path d="M40.435 11.16C40.515 11.5333 40.6683 11.8733 40.895 12.18C41.135 12.4733 41.4483 12.7067 41.835 12.88C42.235 13.0533 42.7083 13.14 43.255 13.14C44.095 13.14 44.7217 12.9467 45.135 12.56C45.5483 12.16 45.755 11.6933 45.755 11.16C45.755 10.72 45.6217 10.3533 45.355 10.06C45.1017 9.76667 44.7417 9.52 44.275 9.32C43.8083 9.10667 43.275 8.90667 42.675 8.72C42.1283 8.56 41.6017 8.39333 41.095 8.22C40.5883 8.03333 40.1283 7.80667 39.715 7.54C39.315 7.26 38.995 6.90667 38.755 6.48C38.515 6.04 38.4017 5.49333 38.415 4.84C38.415 3.98667 38.615 3.26667 39.015 2.68C39.415 2.08 39.975 1.62667 40.695 1.32C41.415 1.01333 42.2417 0.86 43.175 0.86C43.9617 0.86 44.6683 0.973333 45.295 1.2C45.935 1.41333 46.475 1.73333 46.915 2.16C47.355 2.57333 47.6817 3.08667 47.895 3.7L45.715 4.42C45.635 4.12667 45.475 3.86667 45.235 3.64C44.995 3.4 44.695 3.21333 44.335 3.08C43.9883 2.94667 43.6083 2.87333 43.195 2.86C42.7417 2.84667 42.335 2.91333 41.975 3.06C41.6283 3.20667 41.3483 3.42 41.135 3.7C40.9217 3.96667 40.815 4.28 40.815 4.64C40.815 5.05333 40.935 5.38 41.175 5.62C41.415 5.84667 41.7283 6.04 42.115 6.2C42.515 6.34667 42.955 6.5 43.435 6.66C43.995 6.82 44.5483 7.00667 45.095 7.22C45.655 7.42 46.1617 7.68 46.615 8C47.0817 8.30667 47.455 8.7 47.735 9.18C48.015 9.66 48.155 10.26 48.155 10.98C48.155 11.7533 47.975 12.4533 47.615 13.08C47.2683 13.7067 46.735 14.2067 46.015 14.58C45.295 14.9533 44.4017 15.14 43.335 15.14C42.4683 15.14 41.675 15.0133 40.955 14.76C40.2483 14.4933 39.655 14.12 39.175 13.64C38.7083 13.1467 38.4017 12.5667 38.255 11.9L40.435 11.16Z" fill="#161616"/><path d="M57.4952 0.999999H59.8752V6.92H66.4752V0.999999H68.8352V15H66.4752V8.9H59.8752V15H57.4952V0.999999Z" fill="#161616"/><path d="M78.7725 0.999999H81.1525V15H78.7725V0.999999Z" fill="#161616"/><path d="M97.485 15.14C96.4983 15.14 95.5717 14.9667 94.705 14.62C93.8383 14.2733 93.0783 13.7867 92.425 13.16C91.785 12.52 91.2783 11.7667 90.905 10.9C90.545 10.02 90.365 9.05333 90.365 8C90.365 6.96 90.545 6.00667 90.905 5.14C91.2783 4.26 91.785 3.5 92.425 2.86C93.0783 2.22 93.8383 1.72667 94.705 1.38C95.5717 1.03333 96.4983 0.86 97.485 0.86C98.4717 0.86 99.3917 1.03333 100.245 1.38C101.112 1.72667 101.865 2.22 102.505 2.86C103.158 3.5 103.665 4.26 104.025 5.14C104.398 6.00667 104.585 6.96 104.585 8C104.585 9.05333 104.398 10.02 104.025 10.9C103.665 11.7667 103.158 12.52 102.505 13.16C101.865 13.7867 101.112 14.2733 100.245 14.62C99.3917 14.9667 98.4717 15.14 97.485 15.14ZM97.485 13.12C98.3917 13.12 99.1983 12.9133 99.905 12.5C100.612 12.0733 101.165 11.48 101.565 10.72C101.965 9.94667 102.165 9.04 102.165 8C102.165 6.94667 101.965 6.04 101.565 5.28C101.165 4.52 100.612 3.93333 99.905 3.52C99.1983 3.09333 98.3917 2.88 97.485 2.88C96.5783 2.88 95.7717 3.09333 95.065 3.52C94.3583 3.93333 93.7983 4.52 93.385 5.28C92.985 6.04 92.785 6.94667 92.785 8C92.785 9.04 92.985 9.94667 93.385 10.72C93.7983 11.48 94.3583 12.0733 95.065 12.5C95.7717 12.9133 96.5783 13.12 97.485 13.12Z" fill="#161616"/><path d="M125.089 0.999999V15H122.669L116.149 4.74V15H113.769V0.999999H116.209L122.729 11.22V0.999999H125.089Z" fill="#161616"/></symbol>
	<symbol id="ChevronLeft" xmlns="http://www.w3.org/2000/svg" fill="none" viewBox="0 0 24 24" stroke="currentColor"><path stroke-linecap="round" stroke-linejoin="round" d="M15.75 19.5L8.25 12l7.5-7.5" /></symbol>
	<symbol id="ChevronRight" viewBox="0 0 24 24" fill="currentColor" xmlns="http://www.w3.org/2000/svg" class="fill-current"><path id="Vector (Stroke)" fill-rule="evenodd" clip-rule="evenodd" d="M9.4 3.20006C9.84183 2.86869 10.4686 2.95823 10.8 3.40006L16.8 11.4001C17.0667 11.7556 17.0667 12.2445 16.8 12.6001L10.8 20.6001C10.4686 21.0419 9.84183 21.1314 9.4 20.8001C8.95817 20.4687 8.86863 19.8419 9.2 19.4001L14.75 12.0001L9.2 4.60006C8.86863 4.15823 8.95817 3.53143 9.4 3.20006Z" /></symbol>
	<symbol id="ChevronUp" xmlns="http://www.w3.org/2000/svg" fill="none" viewBox="0 0 24 24" stroke="currentColor"><path stroke-linecap="round" stroke-linejoin="round" d="M4.5 15.75l7.5-7.5 7.5 7.5" /></symbol>	
	<symbol id="ChevronDown" xmlns="http://www.w3.org/2000/svg" fill="none" viewBox="0 0 24 24" stroke="currentColor"><path stroke-linecap="round" stroke-linejoin="round" d="M19.5 8.25l-7.5 7.5-7.5-7.5" /></symbol>
	<symbol id="QuestionMarkCircle" xmlns="http://www.w3.org/2000/svg" fill="none" viewBox="0 0 24 24" stroke="currentColor"><path stroke-linecap="round" stroke-linejoin="round" d="M9.879 7.519c1.171-1.025 3.071-1.025 4.242 0 1.172 1.025 1.172 2.687 0 3.712-.203.179-.43.326-.67.442-.745.361-1.45.999-1.45 1.827v.75M21 12a9 9 0 11-18 0 9 9 0 0118 0zm-9 5.25h.008v.008H12v-.008z" /></symbol>
	<symbol id="User" width="20" height="20" viewBox="0 0 20 20" fill="none" xmlns="http://www.w3.org/2000/svg"><path fill-rule="evenodd" clip-rule="evenodd" d="M10.0003 3.33366C8.61961 3.33366 7.50033 4.45295 7.50033 5.83366C7.50033 7.21437 8.61961 8.33366 10.0003 8.33366C11.381 8.33366 12.5003 7.21437 12.5003 5.83366C12.5003 4.45295 11.381 3.33366 10.0003 3.33366ZM5.83366 5.83366C5.83366 3.53247 7.69914 1.66699 10.0003 1.66699C12.3015 1.66699 14.167 3.53247 14.167 5.83366C14.167 8.13484 12.3015 10.0003 10.0003 10.0003C7.69914 10.0003 5.83366 8.13484 5.83366 5.83366ZM8.33366 13.3337C7.67062 13.3337 7.03473 13.597 6.56589 14.0659C6.09705 14.5347 5.83366 15.1706 5.83366 15.8337V17.5003C5.83366 17.9606 5.46056 18.3337 5.00033 18.3337C4.54009 18.3337 4.16699 17.9606 4.16699 17.5003V15.8337C4.16699 14.7286 4.60598 13.6688 5.38738 12.8874C6.16878 12.106 7.22859 11.667 8.33366 11.667H11.667C12.7721 11.667 13.8319 12.106 14.6133 12.8874C15.3947 13.6688 15.8337 14.7286 15.8337 15.8337V17.5003C15.8337 17.9606 15.4606 18.3337 15.0003 18.3337C14.5401 18.3337 14.167 17.9606 14.167 17.5003V15.8337C14.167 15.1706 13.9036 14.5347 13.4348 14.0659C12.9659 13.597 12.33 13.3337 11.667 13.3337H8.33366Z" fill="currentColor"/></symbol>
	<symbol id="ShoppingCart" width="20" height="20" viewBox="0 0 20 20" fill="none" xmlns="http://www.w3.org/2000/svg"><path d="M14.9997 5.00033H13.333C13.333 3.15866 11.8413 1.66699 9.99968 1.66699C8.15801 1.66699 6.66634 3.15866 6.66634 5.00033H4.99967C4.08301 5.00033 3.33301 5.75033 3.33301 6.66699V16.667C3.33301 17.5837 4.08301 18.3337 4.99967 18.3337H14.9997C15.9163 18.3337 16.6663 17.5837 16.6663 16.667V6.66699C16.6663 5.75033 15.9163 5.00033 14.9997 5.00033ZM9.99968 3.33366C10.9163 3.33366 11.6663 4.08366 11.6663 5.00033H8.33301C8.33301 4.08366 9.08301 3.33366 9.99968 3.33366ZM14.9997 16.667H4.99967V6.66699H6.66634V8.33366C6.66634 8.79199 7.04134 9.16699 7.49967 9.16699C7.95801 9.16699 8.33301 8.79199 8.33301 8.33366V6.66699H11.6663V8.33366C11.6663 8.79199 12.0413 9.16699 12.4997 9.16699C12.958 9.16699 13.333 8.79199 13.333 8.33366V6.66699H14.9997V16.667Z" fill="currentColor"/></symbol>
	<symbol id="Bars3" xmlns="http://www.w3.org/2000/svg" viewBox="0 0 20 20" stroke="currentColor" fill="none"><path fill-rule="evenodd" clip-rule="evenodd" d="M2.5 5.00033C2.5 4.54009 2.8731 4.16699 3.33333 4.16699H16.6667C17.1269 4.16699 17.5 4.54009 17.5 5.00033C17.5 5.46056 17.1269 5.83366 16.6667 5.83366H3.33333C2.8731 5.83366 2.5 5.46056 2.5 5.00033ZM2.5 10.0003C2.5 9.54009 2.8731 9.16699 3.33333 9.16699H16.6667C17.1269 9.16699 17.5 9.54009 17.5 10.0003C17.5 10.4606 17.1269 10.8337 16.6667 10.8337H3.33333C2.8731 10.8337 2.5 10.4606 2.5 10.0003ZM2.5 15.0003C2.5 14.5401 2.8731 14.167 3.33333 14.167H16.6667C17.1269 14.167 17.5 14.5401 17.5 15.0003C17.5 15.4606 17.1269 15.8337 16.6667 15.8337H3.33333C2.8731 15.8337 2.5 15.4606 2.5 15.0003Z" fill="currentColor"/></symbol>
	<symbol id="Heart" xmlns="http://www.w3.org/2000/svg" viewBox="0 0 24 24" stroke="currentColor"><path stroke-linecap="round" stroke-linejoin="round" d="M21 8.25c0-2.485-2.099-4.5-4.688-4.5-1.935 0-3.597 1.126-4.312 2.733-.715-1.607-2.377-2.733-4.313-2.733C5.1 3.75 3 5.765 3 8.25c0 7.22 9 12 9 12s9-4.78 9-12z" /></symbol>
	<symbol id="MagnifyingGlass" width="20" height="20" viewBox="0 0 20 20" fill="none" xmlns="http://www.w3.org/2000/svg"><path fill-rule="evenodd" clip-rule="evenodd" d="M8.33366 3.33366C5.57223 3.33366 3.33366 5.57223 3.33366 8.33366C3.33366 11.0951 5.57223 13.3337 8.33366 13.3337C11.0951 13.3337 13.3337 11.0951 13.3337 8.33366C13.3337 5.57223 11.0951 3.33366 8.33366 3.33366ZM1.66699 8.33366C1.66699 4.65176 4.65176 1.66699 8.33366 1.66699C12.0156 1.66699 15.0003 4.65176 15.0003 8.33366C15.0003 9.87425 14.4778 11.2928 13.6002 12.4217L18.0896 16.9111C18.415 17.2365 18.415 17.7641 18.0896 18.0896C17.7641 18.415 17.2365 18.415 16.9111 18.0896L12.4217 13.6002C11.2928 14.4778 9.87425 15.0003 8.33366 15.0003C4.65176 15.0003 1.66699 12.0156 1.66699 8.33366Z" fill="currentColor"/></symbol>
	<symbol id="XMark" xmlns="http://www.w3.org/2000/svg" fill="none" viewBox="0 0 24 24" stroke="currentColor"><path stroke-linecap="round" stroke-linejoin="round" d="M6 18L18 6M6 6l12 12" /></symbol>
	<symbol id="Plus" xmlns="http://www.w3.org/2000/svg" fill="none" viewBox="0 0 24 24" stroke="currentColor"><path stroke-linecap="round" stroke-linejoin="round" d="M12 4.5v15m7.5-7.5h-15" /></symbol>
	<symbol id="Minus" xmlns="http://www.w3.org/2000/svg" fill="none" viewBox="0 0 24 24" stroke="currentColor"><path stroke-linecap="round" stroke-linejoin="round" d="M19.5 12h-15" /></symbol>
	<symbol id="MapPin" xmlns="http://www.w3.org/2000/svg" fill="none" viewBox="0 0 24 24" stroke="currentColor"><path stroke-linecap="round" stroke-linejoin="round" d="M15 10.5a3 3 0 11-6 0 3 3 0 016 0z" /><path stroke-linecap="round" stroke-linejoin="round" d="M19.5 10.5c0 7.142-7.5 11.25-7.5 11.25S4.5 17.642 4.5 10.5a7.5 7.5 0 1115 0z" /></symbol>	
	<symbol id="Phone" xmlns="http://www.w3.org/2000/svg" fill="none" viewBox="0 0 24 24" stroke="currentColor"><path stroke-linecap="round" stroke-linejoin="round" d="M2.25 6.75c0 8.284 6.716 15 15 15h2.25a2.25 2.25 0 002.25-2.25v-1.372c0-.516-.351-.966-.852-1.091l-4.423-1.106c-.44-.11-.902.055-1.173.417l-.97 1.293c-.282.376-.769.542-1.21.38a12.035 12.035 0 01-7.143-7.143c-.162-.441.004-.928.38-1.21l1.293-.97c.363-.271.527-.734.417-1.173L6.963 3.102a1.125 1.125 0 00-1.091-.852H4.5A2.25 2.25 0 002.25 4.5v2.25z" /></symbol>
	<symbol id="Elo" xmlns="http://www.w3.org/2000/svg" viewBox="0 0 40 14" stroke="currentColor" fill="none"><path d="M6.57655 3.09309C6.98496 2.95495 7.4234 2.88288 7.87985 2.88288C9.87385 2.88288 11.5375 4.3003 11.9159 6.18018L14.7387 5.6036C14.0901 2.40841 11.2672 0 7.87985 0C7.10508 0 6.36033 0.126126 5.66364 0.36036L6.57655 3.09309Z" fill="currentColor"/><path d="M3.24323 12.2463L5.15314 10.0841C4.30029 9.32733 3.76576 8.22823 3.76576 6.997C3.76576 5.77178 4.30029 4.66667 5.15314 3.91592L3.24323 1.75977C1.79579 3.04505 0.882874 4.91292 0.882874 7.00301C0.882874 9.08709 1.79579 10.961 3.24323 12.2463Z" fill="currentColor"/><path d="M11.9159 7.82617C11.5315 9.70605 9.87387 11.1175 7.87988 11.1175C7.42342 11.1175 6.98498 11.0454 6.57057 10.9073L5.65765 13.64C6.35435 13.8742 7.1051 14.0003 7.87988 14.0003C11.2673 14.0003 14.0901 11.5979 14.7387 8.40275L11.9159 7.82617Z" fill="currentColor"/><path d="M24.1441 9.75962C23.6757 10.2161 23.045 10.4924 22.3484 10.4803C21.8679 10.4743 21.4234 10.3302 21.0511 10.0899L20.1141 11.5794C20.7568 11.9818 21.5075 12.2221 22.3243 12.2341C23.5075 12.2521 24.5886 11.7836 25.3754 11.0209L24.1441 9.75962ZM22.4505 3.68755C20.0961 3.65151 18.1502 5.5374 18.1141 7.89175C18.1021 8.77463 18.3544 9.60346 18.8048 10.2881L26.5405 6.97884C26.1081 5.12298 24.4505 3.72358 22.4505 3.68755ZM19.8859 8.22809C19.8739 8.13199 19.8679 8.02989 19.8679 7.92779C19.8919 6.5404 21.033 5.42929 22.4204 5.45331C23.1772 5.46532 23.8499 5.80767 24.3003 6.34821L19.8859 8.22809ZM28.973 1.76562V10.0119L30.4024 10.6065L29.7237 12.2341L28.3063 11.6455C27.988 11.5074 27.7718 11.2972 27.6096 11.0569C27.4535 10.8167 27.3333 10.4803 27.3333 10.0359V1.76562H28.973Z" fill="currentColor"/><path d="M34.1321 5.57925C34.3844 5.49516 34.6487 5.45312 34.9309 5.45312C36.1502 5.45312 37.1592 6.31798 37.3934 7.46513L39.1171 7.11078C38.7207 5.15882 36.997 3.69336 34.9309 3.69336C34.4565 3.69336 34 3.77144 33.5796 3.90958L34.1321 5.57925ZM32.0961 11.1588L33.2613 9.84351C32.7387 9.38105 32.4144 8.70837 32.4144 7.95762C32.4144 7.20687 32.7448 6.5342 33.2613 6.07774L32.0961 4.76243C31.2132 5.54321 30.6547 6.69036 30.6547 7.96363C30.6547 9.2369 31.2132 10.378 32.0961 11.1588ZM37.3934 8.46813C37.1592 9.61528 36.1442 10.4801 34.9309 10.4801C34.6547 10.4801 34.3844 10.4321 34.1321 10.348L33.5736 12.0177C34 12.1618 34.4565 12.2399 34.9309 12.2399C36.997 12.2399 38.7207 10.7744 39.1171 8.82249L37.3934 8.46813Z" fill="currentColor"/></symbol>
	<symbol id="Mastercard" xmlns="http://www.w3.org/2000/svg" viewBox="0 0 26 20" fill="none" stroke="currentColor"><g clip-path="url(#clip0_81_156)"><path d="M4.77191 19.9552V18.6263C4.77191 18.1167 4.46174 17.7846 3.95265 17.7846C3.68527 17.7846 3.39918 17.8734 3.19971 18.159C3.04463 17.9151 2.82538 17.7846 2.49116 17.7846C2.36689 17.7793 2.24323 17.8048 2.13124 17.8589C2.01926 17.913 1.92244 17.9941 1.84944 18.0948V17.8274H1.42859V19.9536H1.84944V18.737C1.84944 18.3627 2.07083 18.1836 2.381 18.1836C2.69116 18.1836 2.86816 18.383 2.86816 18.737V19.9552H3.28902V18.737C3.28902 18.3627 3.51041 18.1836 3.82057 18.1836C4.13073 18.1836 4.30773 18.383 4.30773 18.737V19.9552H4.77191ZM11.6821 17.8509H10.9067V17.2092H10.4869V17.8509H10.0441V18.2253H10.4869V19.2242C10.4869 19.7114 10.6639 19.9996 11.1954 19.9996C11.3968 19.9954 11.5941 19.9422 11.7703 19.8445L11.6371 19.4702C11.5177 19.5449 11.3791 19.5833 11.2382 19.5809C11.0168 19.5809 10.9061 19.4477 10.9061 19.2263V18.2082H11.6815V17.8536L11.6821 17.8509ZM15.6243 17.7846C15.5097 17.7821 15.3964 17.8093 15.2954 17.8637C15.1945 17.918 15.1093 17.9977 15.0484 18.0948V17.8274H14.6275V19.9536H15.0484V18.7595C15.0484 18.405 15.2254 18.1836 15.5136 18.1836C15.6109 18.1875 15.7074 18.2024 15.8013 18.2279L15.9345 17.829C15.8329 17.8034 15.729 17.7885 15.6243 17.7846ZM9.66656 18.006C9.44517 17.8509 9.13501 17.7846 8.80292 17.7846C8.27137 17.7846 7.93928 18.0285 7.93928 18.4493C7.93928 18.8039 8.18314 19.0028 8.64784 19.0697L8.86923 19.0916C9.11308 19.136 9.26816 19.2247 9.26816 19.3354C9.26816 19.4905 9.09116 19.6028 8.75854 19.6028C8.50456 19.608 8.2558 19.5303 8.04998 19.3814L7.82859 19.7135C8.13875 19.9349 8.51522 19.9809 8.73768 19.9809C9.358 19.9809 9.69009 19.6932 9.69009 19.2943C9.69009 18.9199 9.42271 18.7408 8.95907 18.6739L8.73768 18.652C8.53822 18.6301 8.36335 18.5632 8.36335 18.4306C8.36335 18.2755 8.54036 18.1632 8.78421 18.1632C9.05159 18.1632 9.31576 18.2739 9.44891 18.3402L9.66656 18.006ZM16.0896 18.8921C16.0896 19.5338 16.5104 19.9996 17.197 19.9996C17.5072 19.9996 17.7286 19.9333 17.95 19.7558L17.7286 19.4237C17.5718 19.5506 17.3768 19.6209 17.1751 19.6231C16.8008 19.6231 16.5104 19.3354 16.5104 18.9146C16.5104 18.4937 16.797 18.2082 17.1751 18.2082C17.3768 18.2104 17.5718 18.2807 17.7286 18.4076L17.95 18.0755C17.7286 17.8985 17.5072 17.8317 17.197 17.8317C16.5323 17.7873 16.0896 18.2525 16.0896 18.8948V18.8921ZM13.1216 17.7846C12.5013 17.7846 12.0805 18.2274 12.0805 18.8921C12.0805 19.5568 12.5232 19.9996 13.1655 19.9996C13.4779 20.0062 13.7831 19.9046 14.0291 19.7119L13.8077 19.4017C13.6298 19.5396 13.4125 19.6172 13.1874 19.6231C12.8997 19.6231 12.5896 19.4461 12.5457 19.0697H14.1184V18.8927C14.1184 18.2279 13.7195 17.7852 13.1216 17.7852V17.7846ZM13.0997 18.1836C13.4099 18.1836 13.6313 18.383 13.6532 18.7151H12.5019C12.5682 18.405 12.7692 18.1836 13.0997 18.1836ZM7.36335 18.8921V17.829H6.94249V18.0964C6.78741 17.8969 6.56816 17.7862 6.25586 17.7862C5.658 17.7862 5.21469 18.2515 5.21469 18.8937C5.21469 19.536 5.65747 20.0012 6.25586 20.0012C6.56602 20.0012 6.78741 19.8905 6.94249 19.691V19.9584H7.36335V18.8921ZM5.658 18.8921C5.658 18.4932 5.90185 18.1836 6.32271 18.1836C6.72164 18.1836 6.96442 18.4937 6.96442 18.8921C6.96442 19.313 6.69704 19.6007 6.32271 19.6007C5.90185 19.6226 5.658 19.2905 5.658 18.8921ZM22.0259 17.7846C21.9113 17.7821 21.798 17.8093 21.697 17.8637C21.5961 17.918 21.5109 17.9977 21.45 18.0948V17.8274H21.0291V19.9536H21.4495V18.7595C21.4495 18.405 21.6265 18.1836 21.9147 18.1836C22.012 18.1875 22.1085 18.2024 22.2024 18.2279L22.3355 17.829C22.234 17.8034 22.13 17.7885 22.0254 17.7846H22.0259ZM20.3869 18.8921V17.829H19.966V18.0964C19.8109 17.8969 19.5917 17.7862 19.2794 17.7862C18.6815 17.7862 18.2382 18.2515 18.2382 18.8937C18.2382 19.536 18.681 20.0012 19.2794 20.0012C19.5896 20.0012 19.8109 19.8905 19.966 19.691V19.9584H20.3869V18.8921ZM18.6815 18.8921C18.6815 18.4932 18.9254 18.1836 19.3462 18.1836C19.7452 18.1836 19.988 18.4937 19.988 18.8921C19.988 19.313 19.7206 19.6007 19.3462 19.6007C18.9254 19.6226 18.6815 19.2905 18.6815 18.8921ZM24.6618 18.8921V16.9873H24.2409V18.0948C24.0858 17.8953 23.8666 17.7846 23.5543 17.7846C22.9564 17.7846 22.5131 18.2499 22.5131 18.8921C22.5131 19.5344 22.9559 19.9996 23.5543 19.9996C23.8644 19.9996 24.0858 19.8889 24.2409 19.6894V19.9568H24.6618V18.8921ZM22.9564 18.8921C22.9564 18.4932 23.2003 18.1836 23.6211 18.1836C24.02 18.1836 24.2628 18.4937 24.2628 18.8921C24.2628 19.313 23.9954 19.6007 23.6211 19.6007C23.1997 19.6231 22.9559 19.291 22.9559 18.8921H22.9564Z" fill="currentColor"/><path d="M9.95478 7.97327C9.95505 6.76731 10.2281 5.57704 10.7536 4.49159C11.279 3.40613 12.0433 2.45361 12.989 1.70535C11.8128 0.780601 10.4002 0.205442 8.9126 0.045623C7.42499 -0.114196 5.92242 0.147775 4.57667 0.801588C3.23091 1.4554 2.09627 2.47468 1.30244 3.74289C0.508619 5.01111 0.0876465 6.47709 0.0876465 7.97327C0.0876465 9.46944 0.508619 10.9354 1.30244 12.2036C2.09627 13.4719 3.23091 14.4911 4.57667 15.1449C5.92242 15.7988 7.42499 16.0607 8.9126 15.9009C10.4002 15.7411 11.8128 15.1659 12.989 14.2412C12.0433 13.4929 11.279 12.5404 10.7536 11.4549C10.2281 10.3695 9.95505 9.17922 9.95478 7.97327Z" fill="currentColor"/><path d="M25.9019 7.97297C25.9029 9.46805 25.4832 10.9333 24.6907 12.201C23.8982 13.4688 22.7648 14.4879 21.4203 15.1418C20.0758 15.7957 18.5744 16.0579 17.0879 15.8986C15.6013 15.7393 14.1896 15.1648 13.0142 14.2409C13.9601 13.4928 14.7245 12.5403 15.25 11.4548C15.7755 10.3693 16.0485 9.17898 16.0485 7.97297C16.0485 6.76696 15.7755 5.5766 15.25 4.4911C14.7245 3.4056 13.9601 2.45312 13.0142 1.70506C14.1896 0.781104 15.6013 0.20662 17.0879 0.0473072C18.5744 -0.112005 20.0758 0.150287 21.4203 0.804186C22.7648 1.45808 23.8982 2.47719 24.6907 3.74493C25.4832 5.01268 25.9029 6.47789 25.9019 7.97297Z" fill="currentColor" fill-opacity="0.4"/><path fill-rule="evenodd" clip-rule="evenodd" d="M13.0141 1.70508H12.989C12.0432 2.45333 11.279 3.40585 10.7536 4.49131C10.2281 5.57677 9.95504 6.76704 9.95477 7.97299C9.95504 9.17894 10.2281 10.3692 10.7536 11.4547C11.279 12.5401 12.0433 13.4926 12.989 14.2409H13.0141C13.0141 14.2409 13.0141 14.2409 13.0141 14.2409C13.9601 13.4928 14.7245 12.5404 15.25 11.4549C15.7755 10.3694 16.0484 9.17899 16.0484 7.97299C16.0484 6.76698 15.7755 5.57661 15.25 4.49111C14.7245 3.40561 13.9601 2.45314 13.0141 1.70508Z" fill="currentColor" fill-opacity="0.6"/></g><defs><clipPath id="clip0_81_156"><rect width="25.8027" height="20" fill="white" transform="translate(0.0986328)"/></clipPath></defs></symbol>
	<symbol id="Visa" xmlns="http://www.w3.org/2000/svg" viewBox="0 0 40 12" fill="none" stroke="currentColor"><path d="M14.2514 11.8628L16.2325 0.237305H19.4012L17.4187 11.8628H14.2514Z" fill="currentColor"/><path d="M28.8667 0.488266C28.2389 0.252744 27.2552 0 26.0267 0C22.8956 0 20.6902 1.57674 20.6714 3.83653C20.6537 5.50698 22.2459 6.43886 23.4479 6.99494C24.6813 7.56486 25.0959 7.92824 25.09 8.437C25.0821 9.21631 24.105 9.57221 23.1942 9.57221C21.926 9.57221 21.2522 9.39601 20.2115 8.96208L19.8031 8.77728L19.3585 11.3797C20.0986 11.7043 21.4671 11.9854 22.8882 12C26.2191 12 28.3815 10.4413 28.4061 8.02807C28.4179 6.70556 27.5737 5.69921 25.7455 4.86948C24.638 4.33169 23.9597 3.97282 23.9669 3.42826C23.9669 2.94504 24.541 2.42833 25.7816 2.42833C26.8177 2.41223 27.5684 2.6382 28.1533 2.87372L28.4372 3.00787L28.8667 0.488266Z" fill="currentColor"/><path d="M37.0208 0.237305H34.5723C33.8138 0.237305 33.2461 0.444322 32.913 1.20137L28.2071 11.8552H31.5345C31.5345 11.8552 32.0785 10.4228 32.2015 10.1082C32.5651 10.1082 35.7976 10.1132 36.2597 10.1132C36.3545 10.5202 36.6452 11.8552 36.6452 11.8552H39.5855L37.0208 0.237305ZM33.136 7.74409C33.3981 7.07428 34.3985 4.49428 34.3985 4.49428C34.3798 4.52522 34.6587 3.82121 34.8186 3.38473L35.0328 4.38703C35.0328 4.38703 35.6395 7.16205 35.7663 7.74391H33.136V7.74409Z" fill="currentColor"/><path d="M0.45503 0.237305L0.414551 0.479138C1.66716 0.782359 2.78593 1.22123 3.76542 1.76717L6.57706 11.8441L9.92966 11.8404L14.9183 0.237305H11.5615L8.45929 8.16502L8.12885 6.55384C8.11337 6.50406 8.09654 6.4542 8.07932 6.40422L7.00087 1.21879C6.80912 0.482646 6.25282 0.262959 5.56461 0.237305H0.45503Z" fill="currentColor"/></symbol>		
	<symbol id="Facebook" xmlns="http://www.w3.org/2000/svg" viewBox="0 0 24 24" stroke="currentColor" fill="none" stroke-linecap="round" stroke-linejoin="round"><path stroke="none" d="M0 0h24v24H0z" fill="none" /><path d="M7 10v4h3v7h4v-7h3l1 -4h-4v-2a1 1 0 0 1 1 -1h3v-4h-3a5 5 0 0 0 -5 5v2h-3" /></symbol>
	<symbol id="Instagram" xmlns="http://www.w3.org/2000/svg" viewBox="0 0 24 24" stroke="currentColor" fill="none" stroke-linecap="round" stroke-linejoin="round"><path stroke="none" d="M0 0h24v24H0z" fill="none" /><rect x="4" y="4" width="16" height="16" rx="4" /><circle cx="12" cy="12" r="3" /><line x1="16.5" y1="7.5" x2="16.5" y2="7.501" /></symbol>
	<symbol id="Tiktok" xmlns="http://www.w3.org/2000/svg" viewBox="0 0 24 24" stroke="currentColor" fill="none" stroke-linecap="round" stroke-linejoin="round"><path stroke="none" d="M0 0h24v24H0z" fill="none" /><path d="M9 12a4 4 0 1 0 4 4v-12a5 5 0 0 0 5 5" /></symbol>
	<symbol id="Truck" xmlns="http://www.w3.org/2000/svg"  viewBox="0 0 36 28" stroke="currentColor" fill="none"><path d="M14 22.333C14 24.174 12.5077 25.6663 10.6667 25.6663C8.82576 25.6663 7.33337 24.174 7.33337 22.333M14 22.333C14 20.4921 12.5077 18.9997 10.6667 18.9997C8.82576 18.9997 7.33337 20.4921 7.33337 22.333M14 22.333H24M7.33337 22.333H4.00004V15.6663M30.6667 22.333C30.6667 24.174 29.1743 25.6663 27.3334 25.6663C25.4924 25.6663 24 24.174 24 22.333M30.6667 22.333C30.6667 20.4921 29.1743 18.9997 27.3334 18.9997C25.4924 18.9997 24 20.4921 24 22.333M30.6667 22.333H34V12.333M2.33337 2.33301H20.6667V22.333M34 12.333H20.6667M34 12.333L29 3.99967H20.6667M4.00004 8.99967H10.6667" stroke-linecap="round" stroke-linejoin="round"/></symbol>
	<symbol id="Discount" xmlns="http://www.w3.org/2000/svg" viewBox="0 0 34 34" stroke="currentColor" fill="none"><path d="M12 21.9998L22 11.9998M13.6667 12.8332C13.6667 13.2934 13.2936 13.6665 12.8333 13.6665C12.3731 13.6665 12 13.2934 12 12.8332C12 12.3729 12.3731 11.9998 12.8333 11.9998C13.2936 11.9998 13.6667 12.3729 13.6667 12.8332ZM22 21.1665C22 21.6267 21.6269 21.9998 21.1667 21.9998C20.7064 21.9998 20.3333 21.6267 20.3333 21.1665C20.3333 20.7063 20.7064 20.3332 21.1667 20.3332C21.6269 20.3332 22 20.7063 22 21.1665ZM5.33334 8.99979C5.33334 8.02733 5.71965 7.0947 6.40728 6.40707C7.09491 5.71943 8.02755 5.33313 9.00001 5.33313H10.6667C11.6348 5.33257 12.5635 4.94913 13.25 4.26646L14.4167 3.09979C14.7574 2.75713 15.1625 2.4852 15.6087 2.29964C16.0549 2.11408 16.5334 2.01855 17.0167 2.01855C17.4999 2.01855 17.9784 2.11408 18.4246 2.29964C18.8708 2.4852 19.2759 2.75713 19.6167 3.09979L20.7833 4.26646C21.4699 4.94913 22.3985 5.33257 23.3667 5.33313H25.0333C26.0058 5.33313 26.9384 5.71943 27.6261 6.40707C28.3137 7.0947 28.7 8.02733 28.7 8.99979V10.6665C28.7006 11.6346 29.084 12.5633 29.7667 13.2498L30.9333 14.4165C31.276 14.7572 31.5479 15.1623 31.7335 15.6085C31.9191 16.0547 32.0146 16.5332 32.0146 17.0165C32.0146 17.4997 31.9191 17.9782 31.7335 18.4244C31.5479 18.8706 31.276 19.2757 30.9333 19.6165L29.7667 20.7831C29.084 21.4696 28.7006 22.3983 28.7 23.3665V25.0331C28.7 26.0056 28.3137 26.9382 27.6261 27.6259C26.9384 28.3135 26.0058 28.6998 25.0333 28.6998H23.3667C22.3985 28.7003 21.4699 29.0838 20.7833 29.7665L19.6167 30.9331C19.2759 31.2758 18.8708 31.5477 18.4246 31.7333C17.9784 31.9188 17.4999 32.0144 17.0167 32.0144C16.5334 32.0144 16.0549 31.9188 15.6087 31.7333C15.1625 31.5477 14.7574 31.2758 14.4167 30.9331L13.25 29.7665C12.5635 29.0838 11.6348 28.7003 10.6667 28.6998H9.00001C8.02755 28.6998 7.09491 28.3135 6.40728 27.6259C5.71965 26.9382 5.33334 26.0056 5.33334 25.0331V23.3665C5.33279 22.3983 4.94934 21.4696 4.26667 20.7831L3.10001 19.6165C2.75734 19.2757 2.48541 18.8706 2.29985 18.4244C2.11429 17.9782 2.01877 17.4997 2.01877 17.0165C2.01877 16.5332 2.11429 16.0547 2.29985 15.6085C2.48541 15.1623 2.75734 14.7572 3.10001 14.4165L4.26667 13.2498C4.94934 12.5633 5.33279 11.6346 5.33334 10.6665V8.99979Z" stroke-linecap="round" stroke-linejoin="round"/></symbol>
	<symbol id="Return" xmlns="http://www.w3.org/2000/svg" viewBox="0 0 34 30" stroke="currentColor" fill="none"><path d="M32 6.66699H2M32 6.66699L27 11.667M32 6.66699L27 1.66699M7 28.3337L2 23.3337M2 23.3337L7 18.3337M2 23.3337H32" stroke-linecap="round" stroke-linejoin="round"/></symbol>			
	<symbol id="CreditCard" xmlns="http://www.w3.org/2000/svg" viewBox="0 0 34 28" stroke="currentColor" fill="none"><path d="M2 10.6663H32M8.66667 18.9997H8.68333M15.3333 18.9997H18.6667M7 2.33301H27C29.7614 2.33301 32 4.57158 32 7.33301V20.6663C32 23.4278 29.7614 25.6663 27 25.6663H7C4.23858 25.6663 2 23.4278 2 20.6663V7.33301C2 4.57158 4.23858 2.33301 7 2.33301Z" stroke-linecap="round" stroke-linejoin="round"/></symbol>		
	<symbol id="Deco" xmlns="http://www.w3.org/2000/svg" viewBox="0 0 58 20" stroke="currentColor" fill="none"><path d="M49.5359 16.9432C47.3666 16.9432 46.9948 14.8019 47.6797 12.7178C48.2221 11.0615 49.5066 9.31991 51.4201 9.31991C53.676 9.31991 53.9039 11.6038 53.247 13.6026C52.6753 15.3162 51.3908 16.9432 49.5359 16.9432ZM48.879 19.9973C52.6473 19.9973 56.0159 17.9133 57.3578 14.1449C58.7569 10.1767 57.1859 6.2085 52.0477 6.2085C47.9369 6.2085 44.7962 8.77758 43.5969 12.1755C42.2551 16.0011 43.7115 19.9973 48.879 19.9973ZM36.3747 19.9973C37.8591 19.9973 39.3729 19.6829 40.4282 19.2271C40.8 18.1998 40.828 17.2004 40.5428 16.201C39.8006 16.4862 38.7732 16.7727 37.7165 16.7727C34.861 16.7727 34.6051 14.6606 35.2048 12.8617C35.8617 10.9496 37.574 9.40786 40.287 9.40786C41.0012 9.40786 41.6861 9.52246 42.1138 9.77963C42.856 8.78025 43.2838 7.78086 43.3704 6.7535C42.7428 6.46834 41.6861 6.21117 40.3163 6.21117C35.863 6.21117 32.3505 8.80956 31.0953 12.406C29.896 15.8039 30.8101 20 36.3774 20L36.3747 19.9973ZM21.0442 11.8037C21.8143 10.0901 23.0136 9.09206 24.5846 9.09206C25.9838 9.09206 26.2116 9.86225 25.9838 10.4619C25.6413 11.2894 24.47 11.8037 21.0442 11.8037ZM22.2714 19.9973C23.7278 19.9973 25.7826 19.7122 27.4962 18.8554C27.7813 17.9133 27.7534 16.9712 27.4389 15.9998C26.3542 16.5421 24.8405 16.8566 23.4707 16.8566C21.4439 16.8566 20.3299 16.1997 20.3592 14.5447C25.8972 14.6873 28.7807 13.6879 29.7228 11.2334C30.6649 8.7496 29.0379 6.2085 25.1829 6.2085C21.0721 6.2085 18.046 9.14935 16.932 12.3181C15.7621 15.6867 16.5043 19.9973 22.2701 19.9973H22.2714ZM5.72293 19.9973C9.52059 19.9973 11.6806 18.2557 14.1924 12.9177C15.5622 9.97684 16.7335 7.09329 18.0753 4.23905L19.6743 4.7534C20.1021 4.89598 20.3313 4.6388 20.1314 4.23905L18.1899 0.270827C18.0473 -0.0143302 17.7329 -0.0436454 17.533 0.0429678L12.708 1.86984C12.3082 2.01242 12.3362 2.38419 12.7359 2.49745L14.1631 2.95451C12.9931 5.6102 11.5367 9.60641 10.3654 12.1182C9.05155 14.9165 8.39595 16.8859 6.16933 16.8859C3.9427 16.8859 3.57093 15.1443 4.51301 12.6605C5.59768 9.77697 7.42455 8.92016 9.5086 9.51979C10.0802 8.72028 10.508 7.52103 10.6785 6.43636C10.0789 6.26447 9.36469 6.2085 8.76639 6.2085C5.3978 6.2085 2.05719 7.95009 0.687373 11.6038C-1.0822 16.3143 0.554122 19.9973 5.7216 19.9973H5.72293Z" fill="currentColor"/></symbol>
	<symbol id="Discord" xmlns="http://www.w3.org/2000/svg" viewBox="0 0 127.14 96.36" stroke="currentColor" fill="none"><g id="图层_2" data-name="图层 2"><g id="Discord_Logos" data-name="Discord Logos"><g id="Discord_Logo_-_Large_-_White" data-name="Discord Logo - Large - White"><path class="cls-1" d="M107.7,8.07A105.15,105.15,0,0,0,81.47,0a72.06,72.06,0,0,0-3.36,6.83A97.68,97.68,0,0,0,49,6.83,72.37,72.37,0,0,0,45.64,0,105.89,105.89,0,0,0,19.39,8.09C2.79,32.65-1.71,56.6.54,80.21h0A105.73,105.73,0,0,0,32.71,96.36,77.7,77.7,0,0,0,39.6,85.25a68.42,68.42,0,0,1-10.85-5.18c.91-.66,1.8-1.34,2.66-2a75.57,75.57,0,0,0,64.32,0c.87.71,1.76,1.39,2.66,2a68.68,68.68,0,0,1-10.87,5.19,77,77,0,0,0,6.89,11.1A105.25,105.25,0,0,0,126.6,80.22h0C129.24,52.84,122.09,29.11,107.7,8.07ZM42.45,65.69C36.18,65.69,31,60,31,53s5-12.74,11.43-12.74S54,46,53.89,53,48.84,65.69,42.45,65.69Zm42.24,0C78.41,65.69,73.25,60,73.25,53s5-12.74,11.44-12.74S96.23,46,96.12,53,91.08,65.69,84.69,65.69Z"/></g></g></g></symbol>
	<symbol id="FilterList" xmlns="http://www.w3.org/2000/svg" viewBox="0 0 16 16" fill="none"><path d="M6.66667 12H9.33333V10.6667H6.66667V12ZM2 4V5.33333H14V4H2ZM4 8.66667H12V7.33333H4V8.66667Z" fill="currentColor"/></symbol>
	<symbol id="Trash" width="20" height="20" viewBox="0 0 20 20" fill="none" xmlns="http://www.w3.org/2000/svg"><path fill-rule="evenodd" clip-rule="evenodd" d="M7.15482 2.15483C7.46738 1.84227 7.89131 1.66667 8.33333 1.66667H11.6667C12.1087 1.66667 12.5326 1.84227 12.8452 2.15483C13.1577 2.46739 13.3333 2.89131 13.3333 3.33334V5H15.8236C15.8295 4.99994 15.8353 4.99994 15.8412 5H16.6667C17.1269 5 17.5 5.3731 17.5 5.83334C17.5 6.29357 17.1269 6.66667 16.6667 6.66667H16.6001L15.833 15.8715C15.8231 16.5207 15.5609 17.1413 15.1011 17.6011C14.6323 18.0699 13.9964 18.3333 13.3333 18.3333H6.66667C6.00362 18.3333 5.36774 18.0699 4.8989 17.6011C4.43906 17.1413 4.17685 16.5207 4.16696 15.8715L3.39989 6.66667H3.33333C2.8731 6.66667 2.5 6.29357 2.5 5.83334C2.5 5.3731 2.8731 5 3.33333 5H4.15878C4.16467 4.99994 4.17055 4.99994 4.17641 5H6.66667V3.33334C6.66667 2.89131 6.84226 2.46739 7.15482 2.15483ZM5.07233 6.66667L5.83045 15.7641C5.83237 15.7871 5.83333 15.8102 5.83333 15.8333C5.83333 16.0543 5.92113 16.2663 6.07741 16.4226C6.23369 16.5789 6.44565 16.6667 6.66667 16.6667H13.3333C13.5543 16.6667 13.7663 16.5789 13.9226 16.4226C14.0789 16.2663 14.1667 16.0543 14.1667 15.8333C14.1667 15.8102 14.1676 15.7871 14.1695 15.7641L14.9277 6.66667H5.07233ZM11.6667 5H8.33333V3.33334H11.6667V5ZM8.33333 8.33334C8.79357 8.33334 9.16667 8.70643 9.16667 9.16667V14.1667C9.16667 14.6269 8.79357 15 8.33333 15C7.8731 15 7.5 14.6269 7.5 14.1667V9.16667C7.5 8.70643 7.8731 8.33334 8.33333 8.33334ZM11.6667 8.33334C12.1269 8.33334 12.5 8.70643 12.5 9.16667V14.1667C12.5 14.6269 12.1269 15 11.6667 15C11.2064 15 10.8333 14.6269 10.8333 14.1667V9.16667C10.8333 8.70643 11.2064 8.33334 11.6667 8.33334Z" fill="currentColor"/></symbol>
	<symbol id="WhatsApp"  xmlns="http://www.w3.org/2000/svg" viewBox="0 0 18 18" fill="none" ><path fill-rule="evenodd" clip-rule="evenodd" d="M13.333 3.94275C12.0977 2.88909 10.5203 2.32246 8.89688 2.34921C7.27345 2.37596 5.71558 2.99425 4.51564 4.08804C3.3157 5.18184 2.55617 6.67594 2.3796 8.28996C2.20302 9.90398 2.62153 11.527 3.5566 12.8543C3.72398 13.0919 3.75547 13.3996 3.63972 13.6661L2.88341 15.408L5.56246 14.9305C5.73665 14.8995 5.9162 14.9247 6.07512 15.0025C7.53336 15.7165 9.20204 15.8737 10.768 15.4448C12.334 15.0158 13.6896 14.0301 14.5804 12.6727C15.4712 11.3152 15.836 9.67933 15.6064 8.07201C15.3767 6.46468 14.5684 4.99641 13.333 3.94275ZM8.86942 0.682773C10.8987 0.649334 12.8704 1.35761 14.4146 2.67469C15.9588 3.99177 16.9692 5.8271 17.2563 7.83626C17.5433 9.84542 17.0873 11.8903 15.9738 13.5871C14.8603 15.2839 13.1658 16.516 11.2083 17.0522C9.34061 17.5638 7.35601 17.4083 5.59455 16.6177L1.64654 17.3213C1.34428 17.3752 1.03687 17.2585 0.846507 17.0176C0.656144 16.7767 0.613663 16.4506 0.735949 16.169L1.93091 13.417C0.947723 11.8367 0.519412 9.96793 0.722814 8.1087C0.943534 6.09118 1.89294 4.22355 3.39287 2.85631C4.8928 1.48907 6.84013 0.716212 8.86942 0.682773ZM6.03312 5.61685C6.26754 5.38243 6.58548 5.25073 6.917 5.25073C7.24852 5.25073 7.56646 5.38243 7.80088 5.61685C8.03531 5.85127 8.167 6.16921 8.167 6.50073V7.33407C8.167 7.66558 8.03531 7.98353 7.80088 8.21795C7.71659 8.30224 7.62149 8.37326 7.51885 8.42964C7.68255 8.89999 7.95113 9.33224 8.30998 9.69109C8.66883 10.0499 9.10107 10.3185 9.57143 10.4822C9.62781 10.3796 9.69882 10.2845 9.78312 10.2002C10.0175 9.96576 10.3355 9.83407 10.667 9.83407H11.5003C11.8319 9.83407 12.1498 9.96576 12.3842 10.2002C12.6186 10.4346 12.7503 10.7525 12.7503 11.0841C12.7503 11.4156 12.6186 11.7335 12.3842 11.9679C12.1498 12.2024 11.8319 12.3341 11.5003 12.3341H10.667C9.34092 12.3341 8.06915 11.8073 7.13147 10.8696C6.19378 9.93192 5.667 8.66015 5.667 7.33407V6.50073C5.667 6.16921 5.79869 5.85127 6.03312 5.61685Z" fill="currentColor"/></symbol>
	<symbol id="ArrowsPointingOut" xmlns="http://www.w3.org/2000/svg" fill="none" viewBox="0 0 24 24"><path stroke-linecap="round" stroke-linejoin="round" d="M3.75 3.75v4.5m0-4.5h4.5m-4.5 0L9 9M3.75 20.25v-4.5m0 4.5h4.5m-4.5 0L9 15M20.25 3.75h-4.5m4.5 0v4.5m0-4.5L15 9m5.25 11.25h-4.5m4.5 0v-4.5m0 4.5L15 15" /></symbol>
	<symbol id="CustomerSupport" fill="currentColor" class="fill-current" viewBox="0 0 24 24" xmlns="http://www.w3.org/2000/svg"><path fill-rule="evenodd" clip-rule="evenodd" d="M0 20c0-2.252 1.748-4 4-4h6c2.252 0 4 1.748 4 4v3a1 1 0 0 1-1 1H1a1 1 0 0 1-1-1v-3Zm4-2c-1.148 0-2 .852-2 2v2h10v-2c0-1.148-.852-2-2-2H4ZM7 8c-1.148 0-2 .852-2 2v1c0 1.148.852 2 2 2 1.148 0 2-.852 2-2v-1c0-1.148-.852-2-2-2Zm-4 2c0-2.252 1.748-4 4-4s4 1.748 4 4v1c0 2.252-1.748 4-4 4s-4-1.748-4-4v-1ZM12 1a1 1 0 0 1 1-1h10a1 1 0 0 1 1 1v7a1 1 0 0 1-1 1h-5.667L13.6 11.8A1 1 0 0 1 12 11V1Zm2 1v7l2.4-1.8A1 1 0 0 1 17 7h5V2h-8Z"/></symbol>
	<symbol id="CentClock" fill="currentColor" class="fill-current" viewBox="0 0 24 24" xmlns="http://www.w3.org/2000/svg"><path clip-rule="evenodd" d="M10 16v-4h2v4c0 .246.225.737 1.204 1.227.92.46 2.26.773 3.796.773 1.535 0 2.876-.313 3.796-.773C21.774 16.737 22 16.246 22 16v-4h2v4c0 1.411-1.118 2.42-2.31 3.016-1.252.626-2.911.984-4.69.984-1.779 0-3.438-.358-4.69-.984C11.118 18.42 10 17.41 10 16Z"/><path clip-rule="evenodd" d="M10 20v-4h2v4c0 .246.225.737 1.204 1.227.92.46 2.26.773 3.796.773 1.535 0 2.876-.313 3.796-.773C21.774 20.737 22 20.246 22 20v-4h2v4c0 1.411-1.118 2.42-2.31 3.016-1.252.626-2.911.984-4.69.984-1.779 0-3.438-.358-4.69-.984C11.118 22.42 10 21.41 10 20ZM13.205 10.773c-.98.49-1.205.981-1.205 1.227 0 .246.225.737 1.205 1.227.92.46 2.26.773 3.795.773 1.535 0 2.876-.313 3.795-.773.98-.49 1.205-.981 1.205-1.227 0-.246-.225-.737-1.205-1.227-.92-.46-2.26-.773-3.795-.773-1.535 0-2.876.313-3.795.773Zm-.895-1.789C13.562 8.358 15.222 8 17 8c1.778 0 3.438.358 4.69.984C22.882 9.58 24 10.59 24 12s-1.118 2.42-2.31 3.016c-1.252.626-2.912.984-4.69.984-1.778 0-3.438-.358-4.69-.984C11.118 14.42 10 13.41 10 12s1.118-2.42 2.31-3.016ZM9 4v5H4V7h3V4h2Z"/><path clip-rule="evenodd" d="M8 2a6 6 0 1 0 0 12h1v2H8a8 8 0 1 1 7.668-10.284l.286.958-1.918.57-.284-.958A6.003 6.003 0 0 0 8 2Z"/></symbol>
	<symbol id="FlipUp2" fill="currentColor" class="fill-current" viewBox="0 0 24 24" xmlns="http://www.w3.org/2000/svg"><path clip-rule="evenodd" d="M22.466 8H10.665a3.25 3.25 0 0 0-3.07 4.318l.945-.329-.945.329 1.61 4.628a2.5 2.5 0 0 0 2.361 1.679h11.309v-2H11.566a.5.5 0 0 1-.472-.336l-.944.329.944-.329-1.61-4.628A1.25 1.25 0 0 1 10.665 10h11.801V8Z"/><path clip-rule="evenodd" d="M12.218.127A11.875 11.875 0 0 0 .125 12v2.966a8.909 8.909 0 0 0 8.909 8.909h8.92a6.058 6.058 0 0 0 5.92-6.077v-5.794A11.794 11.794 0 0 0 12.219.127Zm-.015 1-.011 1a9.794 9.794 0 0 1 9.683 9.866V17.804a4.057 4.057 0 0 1-3.955 4.071H9.034a6.91 6.91 0 0 1-6.91-6.91V12a9.875 9.875 0 0 1 10.06-9.873l.02-1Z"/></symbol>
	<symbol id="Pix" fill="currentColor" class="fill-current" viewBox="0 0 24 24" xmlns="http://www.w3.org/2000/svg"><path clip-rule="evenodd" d="M8.901 1.283a4.382 4.382 0 0 1 6.198 0l7.617 7.618a4.382 4.382 0 0 1 0 6.198L15.1 22.716a4.382 4.382 0 0 1-6.198 0L1.283 15.1a4.382 4.382 0 0 1 0-6.198l7.618-7.618Zm4.783 1.415a2.382 2.382 0 0 0-3.368 0l-7.618 7.618c-.93.93-.93 2.438 0 3.368l7.618 7.618c.93.93 2.438.93 3.368 0l7.618-7.618c.93-.93.93-2.438 0-3.368l-7.618-7.618Z"/><path clip-rule="evenodd" d="M5.4 5.5h1.292a3 3 0 0 1 2.1.857L11.3 8.815a1 1 0 0 0 1.4 0l2.509-2.458a3 3 0 0 1 2.099-.857H18.6v2h-1.292a1 1 0 0 0-.7.286L14.1 10.243a3 3 0 0 1-4.198 0L7.39 7.786l.617-.63-.616.63a1 1 0 0 0-.7-.286H5.4v-2Zm7.3 9.685a1 1 0 0 0-1.4 0l-2.509 2.458a3 3 0 0 1-2.1.857H5.4v-2h1.292a1 1 0 0 0 .7-.286L9.9 13.757a3 3 0 0 1 4.198 0l2.51 2.457a1 1 0 0 0 .699.286H18.6v2h-1.292a3 3 0 0 1-2.1-.857L12.7 15.185Z"/></symbol>
	<symbol id="TonLogo" class="min-w-[24px] max-w-[24px]" viewBox="0 0 62 49" fill="none" xmlns="http://www.w3.org/2000/svg"><path d="M58.8719 33.823C60.5999 33.823 62.0003 32.4033 62.0003 30.6516V22.018C62.0003 15.1207 57.191 9.91797 50.8137 9.91797C44.4363 9.91797 39.627 15.1191 39.627 22.018V30.6516C39.627 32.4033 41.0274 33.823 42.7554 33.823C44.4835 33.823 45.8839 32.4033 45.8839 30.6516V22.018C45.8839 18.3106 47.7735 16.0074 50.8137 16.0074C53.8538 16.0074 55.7434 18.3106 55.7434 22.018V30.6516C55.7434 32.4033 57.1438 33.823 58.8719 33.823Z" fill="#0F3517"/><path d="M25.2157 9.91797C18.6342 9.91797 13.2793 15.3462 13.2793 22.018C13.2793 28.6898 18.6342 34.118 25.2157 34.118C31.7973 34.118 37.1522 28.6898 37.1522 22.018C37.1522 15.3462 31.7973 9.91797 25.2157 9.91797ZM25.2157 28.0286C21.947 28.0286 19.2864 25.333 19.2864 22.018C19.2864 18.7045 21.9455 16.0074 25.2157 16.0074C28.4844 16.0074 31.1451 18.703 31.1451 22.018C31.1451 25.3315 28.486 28.0286 25.2157 28.0286Z" fill="#0F3517"/><path d="M52.3399 5.83038H53.3289C53.37 5.83038 53.405 5.80257 53.405 5.76086V2.98958C53.405 2.20485 53.786 1.79086 54.4428 1.79086C55.0996 1.79086 55.4729 2.20485 55.4729 2.98958V5.75932C55.4729 5.80103 55.508 5.82883 55.5491 5.82883H56.5381C56.5793 5.82883 56.6143 5.80103 56.6143 5.75932V2.99731C56.6143 1.81249 55.9636 0.774414 54.4428 0.774414C52.9205 0.774414 52.2637 1.81249 52.2637 2.99731V5.75932C52.2637 5.80103 52.2987 5.82883 52.3399 5.82883V5.83038Z" fill="#0F3517"/><path d="M45.4285 5.89226C45.7881 5.89226 46.0228 5.85055 46.1264 5.80884C46.1615 5.79494 46.1813 5.75941 46.1813 5.73161V4.90362C46.1813 4.85419 46.1599 4.82638 46.099 4.82638C46.0502 4.82638 45.9116 4.85419 45.8018 4.85419C45.3736 4.85419 45.1862 4.69353 45.1862 4.31507V1.98095H46.099C46.1401 1.98095 46.1752 1.94543 46.1752 1.90372V0.998494C46.1752 0.956786 46.1401 0.921256 46.099 0.921256H45.1511V0.136524C45.1527 0.0531074 45.1176 0.0175781 45.0551 0.0175781H44.121C44.0448 0.0175781 44.0098 0.0531074 44.0098 0.136524V4.43402C44.0098 5.47827 44.5843 5.89226 45.427 5.89226H45.4285Z" fill="#0F3517"/><path d="M41.3546 5.94982C42.4685 5.94982 43.264 5.25623 43.264 4.35101C43.264 3.33456 42.5996 3.03951 41.6944 2.84333L41.2449 2.74447C40.9066 2.66723 40.7191 2.50658 40.7191 2.23315C40.7191 1.8825 41.0651 1.69404 41.542 1.69404C42.2125 1.69404 42.6697 2.00299 42.7383 2.00299C42.7733 2.00299 42.8144 1.97518 42.8282 1.93965L43.008 1.25996C43.043 1.16882 43.0354 1.1472 42.9729 1.11321C42.5722 0.903125 42.1424 0.78418 41.5344 0.78418C40.4067 0.78418 39.625 1.44379 39.625 2.31966C39.625 3.14765 40.2544 3.60335 41.1534 3.79953L41.6106 3.89839C41.9778 3.97563 42.1851 4.12238 42.1851 4.43751C42.1851 4.76037 41.9367 5.03996 41.3485 5.03996C40.518 5.03996 39.9511 4.70321 39.8612 4.70321C39.8063 4.70321 39.785 4.73101 39.7637 4.82215L39.6463 5.39062C39.6113 5.50957 39.6463 5.58681 39.7225 5.62233C40.006 5.78299 40.7801 5.95137 41.3546 5.95137V5.94982Z" fill="#0F3517"/><path d="M49.1109 4.975C48.3841 4.975 47.7212 4.42043 47.7212 3.37618C47.7212 2.33193 48.3856 1.79127 49.1109 1.79127C49.8363 1.79127 50.4946 2.33039 50.4946 3.37618C50.4946 4.42815 49.8439 4.975 49.1109 4.975ZM49.1109 5.98526C50.5632 5.98526 51.6223 4.88386 51.6223 3.37773C51.6223 1.87005 50.5647 0.776367 49.1109 0.776367C47.6648 0.776367 46.5996 1.87005 46.5996 3.37773C46.5996 4.8854 47.6648 5.98526 49.1109 5.98526Z" fill="#0F3517"/><path d="M61.9994 3.32016C61.9994 1.77078 61.1216 0.774414 59.7242 0.774414C58.4107 0.774414 57.2754 1.79858 57.2754 3.35415C57.2754 5.0163 58.4381 5.98331 59.6816 5.98331C60.7254 5.98331 61.3289 5.56623 61.7007 5.058C61.7723 4.95914 61.7876 4.91743 61.7876 4.88963C61.7876 4.86182 61.7693 4.84019 61.7068 4.78458L61.271 4.3984C61.1673 4.30726 61.1323 4.27945 61.0988 4.27945C61.0652 4.27945 61.0439 4.30108 61.0165 4.33506C60.7193 4.74133 60.3033 4.97304 59.7441 4.97304C59.037 4.97304 58.5661 4.48645 58.4472 3.69708H61.6382C61.8592 3.69708 61.9979 3.62602 61.9979 3.31862L61.9994 3.32016ZM59.6831 1.74915C60.4374 1.74915 60.8367 2.2651 60.8595 2.83665H58.464C58.5951 2.22339 59.005 1.74915 59.6831 1.74915Z" fill="#0F3517"/><path d="M23.8075 38.2653C24.8788 37.1176 26.7379 37.0017 27.9219 38.029C30.8523 40.5747 33.7294 41.9495 38.0237 41.9495C42.3179 41.9495 45.195 40.5732 48.1254 38.029C49.3094 37.0017 51.1685 37.1176 52.2398 38.2653C53.433 39.5444 53.3339 41.534 52.0082 42.6709C47.9593 46.1389 43.7001 48.0189 38.0252 48.0189C32.3503 48.0189 28.0911 46.1389 24.0422 42.6709C22.7149 41.534 22.6158 39.5459 23.8106 38.2653H23.8075Z" fill="#0F3517"/><path d="M0 23.9152C0 29.5288 3.927 33.4355 9.18434 33.8C9.18434 33.8 9.89446 33.8201 10.0316 33.817C11.618 33.7784 12.9056 32.5163 12.9056 30.9098C12.9056 29.3048 11.6195 28.0041 10.0316 28.0041C7.82962 28.0041 6.2509 26.2199 6.18232 24.0557V16.0076H9.76036C11.3117 16.0076 12.5704 14.7347 12.5704 13.1653C12.5704 11.5958 11.3117 10.3229 9.76036 10.3229H6.18232V7.99962C6.18232 6.27259 4.79865 4.87305 3.0904 4.87305C1.38367 4.8715 0 6.27259 0 7.99962V14.4366V23.9152Z" fill="#0F3517"/></symbol>
	<symbol id="HappyFace" class="min-w-[80px] max-w-[80px]" viewBox="0 0 80 81" fill="none" xmlns="http://www.w3.org/2000/svg"><path d="M64.9646 36.3885C66.9869 36.3885 68.6313 34.7485 68.6313 32.7218V29.8641C68.6313 21.8907 62.9957 15.8818 55.5246 15.8818C48.0535 15.8818 42.418 21.8952 42.418 29.8641V32.7218C42.418 34.7441 44.058 36.3885 46.0846 36.3885C48.1069 36.3885 49.7513 34.7485 49.7513 32.7218V29.8641C49.7513 25.5796 51.9646 22.9174 55.5246 22.9174C59.0846 22.9174 61.298 25.5796 61.298 29.8641V32.7218C61.298 34.7441 62.938 36.3885 64.9646 36.3885Z" fill="white"/><path d="M34.1023 36.3885C36.1246 36.3885 37.769 34.7485 37.769 32.7218V29.8641C37.7646 21.8952 32.1334 15.8818 24.6623 15.8818C17.1912 15.8818 11.5557 21.8952 11.5557 29.8641V32.7218C11.5557 34.7441 13.1957 36.3885 15.2223 36.3885C17.2446 36.3885 18.889 34.7485 18.889 32.7218V29.8641C18.889 25.5796 21.1023 22.9174 24.6623 22.9174C28.2223 22.9174 30.4357 25.5796 30.4357 29.8641V32.7218C30.4357 34.7441 32.0757 36.3885 34.1023 36.3885Z" fill="white"/><path d="M39.9199 65.1394C33.4355 65.1394 27.3955 61.3972 23.7644 55.1261C22.8399 53.535 23.3866 51.495 24.9777 50.5705C26.5688 49.6461 28.6088 50.1927 29.5333 51.7839C31.9955 56.0327 35.7777 58.4727 39.9199 58.4727C44.0622 58.4727 47.8444 56.0372 50.3066 51.7839C51.231 50.1927 53.2666 49.6461 54.8622 50.5705C56.4533 51.495 56.9999 53.5305 56.0755 55.1261C52.4444 61.3972 46.4044 65.1394 39.9199 65.1394Z" fill="white"/></symbol>
	<symbol id="PhoneMobile" viewBox="0 0 24 24" fill="currentColor" class="fill-current" xmlns="http://www.w3.org/2000/svg"><path fill-rule="evenodd" clip-rule="evenodd" d="M16 2H8C6.89543 2 6 2.89543 6 4V20C6 21.1046 6.89543 22 8 22H16C17.1046 22 18 21.1046 18 20V4C18 2.89543 17.1046 2 16 2ZM8 0C5.79086 0 4 1.79086 4 4V20C4 22.2091 5.79086 24 8 24H16C18.2091 24 20 22.2091 20 20V4C20 1.79086 18.2091 0 16 0H8Z"></path><path d="M12.5 20C13.3284 20 14 19.3284 14 18.5C14 17.6716 13.3284 17 12.5 17C11.6716 17 11 17.6716 11 18.5C11 19.3284 11.6716 20 12.5 20Z"></path></symbol>
	<symbol id="Tool" viewBox="0 0 24 24" fill="currentColor" xmlns="http://www.w3.org/2000/svg" class="fill-current"><path fill-rule="evenodd" clip-rule="evenodd" d="M16.5578 3.02796C16.0748 2.97339 15.5837 2.9892 15.1001 3.07733C14.1002 3.25952 13.1795 3.74211 12.4608 4.46081C11.7421 5.1795 11.2595 6.10016 11.0773 7.10009C10.8951 8.10001 11.022 9.13172 11.441 10.0577C11.6126 10.4369 11.5314 10.8828 11.2371 11.1771L4.32708 18.0871C4.1168 18.2974 3.99866 18.5826 3.99866 18.88C3.99866 19.1774 4.1168 19.4626 4.32708 19.6729C4.53737 19.8832 4.82259 20.0013 5.11998 20.0013C5.41737 20.0013 5.70258 19.8832 5.91287 19.6729L12.8229 12.7629C13.1172 12.4686 13.563 12.3873 13.9423 12.5589C14.8682 12.978 15.8999 13.1048 16.8999 12.9226C17.8998 12.7404 18.8205 12.2578 19.5391 11.5392C20.2578 10.8205 20.7404 9.8998 20.9226 8.89987C21.0108 8.41622 21.0266 7.92514 20.972 7.44218L18.4 10.0142C18.0262 10.3806 17.5235 10.5858 17 10.5858C16.4765 10.5858 15.9738 10.3806 15.6 10.0141L15.5928 10.0071L13.9858 8.40002C13.6193 8.02616 13.4141 7.52349 13.4141 6.99998C13.4141 6.47647 13.6194 5.97384 13.9858 5.59998L13.9928 5.59284L16.5578 3.02796ZM14.7416 1.10972C16.1415 0.854655 17.5859 1.03228 18.8822 1.61892C19.1813 1.75426 19.3949 2.02777 19.4538 2.35073C19.5126 2.67369 19.4092 3.00496 19.1771 3.23709L15.4142 6.99998L17 8.58577L20.7629 4.82287C20.995 4.59075 21.3263 4.48733 21.6492 4.54618C21.9722 4.60502 22.2457 4.81863 22.381 5.11771C22.9677 6.41409 23.1453 7.85848 22.8902 9.25838C22.6352 10.6583 21.9595 11.9472 20.9534 12.9534C19.9472 13.9595 18.6583 14.6352 17.2584 14.8902C16.0909 15.103 14.8925 15.0147 13.7748 14.6393L7.32708 21.0871C6.74172 21.6724 5.9478 22.0013 5.11998 22.0013C4.29215 22.0013 3.49823 21.6724 2.91287 21.0871C2.32751 20.5017 1.99866 19.7078 1.99866 18.88C1.99866 18.0522 2.32751 17.2582 2.91287 16.6729L9.36063 10.2251C8.98522 9.10743 8.897 7.90903 9.10972 6.74158C9.36478 5.34169 10.0404 4.05277 11.0466 3.0466C12.0528 2.04042 13.3417 1.36478 14.7416 1.10972Z"></path></symbol>
	<symbol id="BatteryCharging" viewBox="0 0 24 24" fill="currentColor" xmlns="http://www.w3.org/2000/svg" class="fill-current"><path fill-rule="evenodd" clip-rule="evenodd" d="M24 8V16H22V8H24Z"></path><path fill-rule="evenodd" clip-rule="evenodd" d="M3 7C2.44772 7 2 7.44772 2 8V16C2 16.5523 2.44772 17 3 17H18C18.5523 17 19 16.5523 19 16V8C19 7.44772 18.5523 7 18 7H3ZM0 8C0 6.34315 1.34315 5 3 5H18C19.6569 5 21 6.34315 21 8V16C21 17.6569 19.6569 19 18 19H3C1.34315 19 0 17.6569 0 16V8Z"></path><path fill-rule="evenodd" clip-rule="evenodd" d="M8.99998 8L15.4 12.8L14.2 14.4L11 12V16L4.59998 11.2L5.79998 9.6L8.99998 12V8Z"></path></symbol>
	<symbol id="SimCard" viewBox="0 0 24 24" fill="currentColor" xmlns="http://www.w3.org/2000/svg" class="fill-current"><path fill-rule="evenodd" clip-rule="evenodd" d="M2 0H16.4142L22 5.58579V24H2V0ZM4 2V22H20V6.41421L15.5858 2H4Z"></path><path fill-rule="evenodd" clip-rule="evenodd" d="M6 10H18V20H6V10ZM8 12V18H16V12H8Z"></path></symbol>
	<symbol id="PosCoil" viewBox="0 0 24 24" fill="currentColor" xmlns="http://www.w3.org/2000/svg" class="fill-current"><path fill-rule="evenodd" clip-rule="evenodd" d="M8 2C5.06012 2 3 3.95383 3 6C3 8.04617 5.06012 10 8 10C10.9399 10 13 8.04617 13 6C13 3.95383 10.9399 2 8 2ZM1 6C1 2.52332 4.31247 0 8 0C11.6875 0 15 2.52332 15 6C15 9.47668 11.6875 12 8 12C4.31247 12 1 9.47668 1 6Z"></path><path d="M9 6C9 6.55228 8.55228 7 8 7C7.44772 7 7 6.55228 7 6C7 5.44772 7.44772 5 8 5C8.55228 5 9 5.44772 9 6Z"></path><path fill-rule="evenodd" clip-rule="evenodd" d="M6 6C6 4.89543 6.89543 4 8 4C9.10457 4 10 4.89543 10 6C10 7.10457 9.10457 8 8 8C6.89543 8 6 7.10457 6 6Z"></path><path fill-rule="evenodd" clip-rule="evenodd" d="M4.31206 20.9964C5.21207 21.5964 6.51303 22 8 22C9.48697 22 10.7879 21.5964 11.6879 20.9964C12.5949 20.3917 13 19.6662 13 19H15C15 20.543 14.0619 21.8174 12.7973 22.6605C11.5258 23.5082 9.82674 24 8 24C6.17326 24 4.47422 23.5082 3.20266 22.6605C1.93809 21.8174 1 20.543 1 19H3C3 19.6662 3.40506 20.3917 4.31206 20.9964Z"></path><path fill-rule="evenodd" clip-rule="evenodd" d="M1 19V6H3V19H1Z"></path><path fill-rule="evenodd" clip-rule="evenodd" d="M13 19V6H15V19H13Z"></path><path fill-rule="evenodd" clip-rule="evenodd" d="M20.523 2H8V0H23.477L22.0852 3.47953L23.0943 5.75L22.0852 8.02047L23.077 10.5L22.0852 12.9795L23.0943 15.25L22.0852 17.5205L23.477 21H14.381V19H20.523L19.9148 17.4795L20.9057 15.25L19.9148 13.0205L20.923 10.5L19.9148 7.97953L20.9057 5.75L19.9148 3.52047L20.523 2Z"></path></symbol>
	<symbol id="SignalWiFi2" viewBox="0 0 24 24" fill="currentColor" xmlns="http://www.w3.org/2000/svg" class="fill-current"><path fill-rule="evenodd" clip-rule="evenodd" d="M12.04 11.0021C9.70148 11.0021 7.4369 11.8217 5.64003 13.3183C5.21566 13.6718 4.58511 13.6143 4.23165 13.19C3.87819 12.7656 3.93566 12.135 4.36003 11.7816C6.51628 9.98558 9.23378 9.00208 12.04 9.00208C14.8463 9.00208 17.5638 9.98558 19.72 11.7816C20.1444 12.135 20.2019 12.7656 19.8484 13.19C19.4949 13.6143 18.8644 13.6718 18.44 13.3183C16.6431 11.8217 14.3786 11.0021 12.04 11.0021Z"></path><path fill-rule="evenodd" clip-rule="evenodd" d="M12.0001 6.00269C8.34783 6.00269 4.82108 7.33517 2.08131 9.7502C1.667 10.1154 1.03509 10.0756 0.669891 9.66129C0.304692 9.24698 0.344501 8.61507 0.758806 8.24987C3.86388 5.51283 7.86087 4.00269 12.0001 4.00269C16.1392 4.00269 20.1362 5.51283 23.2413 8.24987C23.6556 8.61507 23.6954 9.24698 23.3302 9.66129C22.965 10.0756 22.3331 10.1154 21.9188 9.7502C19.179 7.33517 15.6523 6.00269 12.0001 6.00269Z"></path><path fill-rule="evenodd" clip-rule="evenodd" d="M12.005 16.0012C10.9672 16.0012 9.95516 16.3241 9.10915 16.9252C8.65893 17.245 8.03464 17.1394 7.71478 16.6891C7.39491 16.2389 7.50059 15.6146 7.95082 15.2948C9.13522 14.4533 10.5521 14.0012 12.005 14.0012C13.4579 14.0012 14.8748 14.4533 16.0592 15.2948C16.5094 15.6146 16.6151 16.2389 16.2952 16.6891C15.9753 17.1394 15.351 17.245 14.9008 16.9252C14.0548 16.3241 13.0428 16.0012 12.005 16.0012Z"></path><path fill-rule="evenodd" clip-rule="evenodd" d="M11 20C11 19.4477 11.4477 19 12 19H12.01C12.5623 19 13.01 19.4477 13.01 20C13.01 20.5523 12.5623 21 12.01 21H12C11.4477 21 11 20.5523 11 20Z"></path></symbol>
	<symbol id="ChartBar3" viewBox="0 0 24 24" fill="currentColor" xmlns="http://www.w3.org/2000/svg" class="fill-current"><path fill-rule="evenodd" clip-rule="evenodd" d="M3 17C3.55228 17 4 17.4477 4 18V21C4 21.5523 3.55228 22 3 22C2.44772 22 2 21.5523 2 21V18C2 17.4477 2.44772 17 3 17Z"></path><path fill-rule="evenodd" clip-rule="evenodd" d="M9 12C9.55228 12 10 12.4477 10 13V21C10 21.5523 9.55228 22 9 22C8.44772 22 8 21.5523 8 21V13C8 12.4477 8.44772 12 9 12Z"></path><path fill-rule="evenodd" clip-rule="evenodd" d="M15 7C15.5523 7 16 7.44772 16 8V21C16 21.5523 15.5523 22 15 22C14.4477 22 14 21.5523 14 21V8C14 7.44772 14.4477 7 15 7Z"></path><path fill-rule="evenodd" clip-rule="evenodd" d="M21 2C21.5523 2 22 2.44772 22 3V21C22 21.5523 21.5523 22 21 22C20.4477 22 20 21.5523 20 21V3C20 2.44772 20.4477 2 21 2Z"></path></symbol>
	<symbol id="HandShake2x" viewBox="0 0 40 40" fill="currentColor" xmlns="http://www.w3.org/2000/svg" class="fill-current"><path fill-rule="evenodd" clip-rule="evenodd" d="M18.9222 9.15882C18.9221 9.15886 18.9222 9.15879 18.9222 9.15882L11.4365 16.6444C12.4404 17.4564 13.6971 17.9052 15.0002 17.9052C16.5027 17.9052 17.9437 17.3085 19.0064 16.2462C19.0063 16.2462 19.0064 16.2462 19.0064 16.2462L23.3335 11.9191L24.7477 13.3333L20.4206 17.6604C18.9829 19.0977 17.0331 19.9052 15.0002 19.9052C12.9672 19.9052 11.0175 19.0978 9.57982 17.6605L8.58594 16.6666L17.508 7.74452C19.9059 5.34728 23.1578 4.00049 26.5485 4.00049C29.9391 4.00049 33.191 5.34719 35.5888 7.74443C37.6024 9.75821 38.8865 12.3865 39.2372 15.2127C39.588 18.0388 38.9855 20.9011 37.5254 23.346L37.0126 24.2046L35.2955 23.1791L35.8083 22.3205C37.0401 20.2579 37.5484 17.8432 37.2525 15.459C36.9566 13.0748 35.8734 10.8576 34.1747 9.1587C32.1519 7.1365 29.4087 6.00049 26.5485 6.00049C23.6882 6.00049 20.945 7.13661 18.9222 9.15882Z" /><path fill-rule="evenodd" clip-rule="evenodd" d="M14.3421 5.9912L13.3421 5.99994C10.5194 6.02463 7.81972 7.15894 5.82647 9.15777L5.11842 8.45169L5.82557 9.15866C3.8033 11.1815 2.66724 13.9247 2.66724 16.785C2.66724 19.6453 3.8033 22.3885 5.82557 24.4113L15.3021 33.8879C16.1379 34.7238 17.1302 35.3869 18.2222 35.8393C19.3142 36.2917 20.4847 36.5245 21.6667 36.5245C22.8487 36.5245 24.0192 36.2917 25.1112 35.8393C26.2032 35.3869 27.1955 34.7238 28.0312 33.8879L30.7578 31.1613C30.7578 31.1614 30.7579 31.1613 30.7578 31.1613C31.5076 30.4112 31.929 29.3939 31.929 28.3333C31.929 27.2727 31.5077 26.2555 30.7579 25.5054C30.7579 25.5054 30.758 25.5055 30.7579 25.5054L24.0292 18.7766L25.4434 17.3624L32.1721 24.0912C33.297 25.2164 33.929 26.7423 33.929 28.3333C33.929 29.9243 33.2971 31.4501 32.1723 32.5753L29.4455 35.302C29.4455 35.302 29.4456 35.302 29.4455 35.302C28.4241 36.3236 27.2113 37.1341 25.8767 37.687C24.542 38.2399 23.1114 38.5245 21.6667 38.5245C20.222 38.5245 18.7915 38.2399 17.4568 37.687C16.1221 37.1341 14.9094 36.3237 13.8879 35.3021C13.8879 35.3021 13.888 35.3021 13.8879 35.3021L4.41127 25.8254C2.01403 23.4276 0.667236 20.1756 0.667236 16.785C0.667236 13.3943 2.01394 10.1425 4.41117 7.74463C6.7753 5.37437 9.97701 4.02929 13.3246 4.00002L14.3246 3.99127L14.3421 5.9912Z" /><path fill-rule="evenodd" clip-rule="evenodd" d="M24.8737 25.4911L31.3588 31.9744L29.9447 33.3888L23.4597 26.9055L24.8737 25.4911Z" /><path fill-rule="evenodd" clip-rule="evenodd" d="M20.5121 29.8512L26.5621 35.9012L25.1479 37.3154L19.0979 31.2654L20.5121 29.8512Z" /></symbol>
	<symbol id="Office2x" viewBox="0 0 40 40" fill="currentColor" xmlns="http://www.w3.org/2000/svg" class="fill-current"><path fill-rule="evenodd" clip-rule="evenodd" d="M9 1.66665C9 1.11437 9.44772 0.666654 10 0.666654H30C30.5523 0.666654 31 1.11437 31 1.66665V9.99999C31 10.5523 30.5523 11 30 11C29.4477 11 29 10.5523 29 9.99999V2.66665H11V15C11 15.5523 10.5523 16 10 16C9.44772 16 9 15.5523 9 15V1.66665Z" /><path fill-rule="evenodd" clip-rule="evenodd" d="M15.6667 38.3333C15.6667 37.781 16.1145 37.3333 16.6667 37.3333H23.3334C23.8857 37.3333 24.3334 37.781 24.3334 38.3333C24.3334 38.8856 23.8857 39.3333 23.3334 39.3333H16.6667C16.1145 39.3333 15.6667 38.8856 15.6667 38.3333Z" /><path fill-rule="evenodd" clip-rule="evenodd" d="M0.666748 20C0.666748 19.4477 1.11446 19 1.66675 19H16.6667C17.219 19 17.6667 19.4477 17.6667 20V38.3333C17.6667 38.8856 17.219 39.3333 16.6667 39.3333H1.66675C1.11446 39.3333 0.666748 38.8856 0.666748 38.3333V20ZM2.66675 21V37.3333H15.6667V21H2.66675Z" /><path fill-rule="evenodd" clip-rule="evenodd" d="M22.3335 15C22.3335 14.4477 22.7812 14 23.3335 14H38.3335C38.8858 14 39.3335 14.4477 39.3335 15V38.3333C39.3335 38.8856 38.8858 39.3333 38.3335 39.3333H23.3335C22.7812 39.3333 22.3335 38.8856 22.3335 38.3333V15ZM24.3335 16V37.3333H37.3335V16H24.3335Z" /><path fill-rule="evenodd" clip-rule="evenodd" d="M29 21.6667C29 21.1144 29.4477 20.6667 30 20.6667H31.6667C32.219 20.6667 32.6667 21.1144 32.6667 21.6667C32.6667 22.2189 32.219 22.6667 31.6667 22.6667H30C29.4477 22.6667 29 22.2189 29 21.6667Z" /><path fill-rule="evenodd" clip-rule="evenodd" d="M29 26.6667C29 26.1144 29.4477 25.6667 30 25.6667H31.6667C32.219 25.6667 32.6667 26.1144 32.6667 26.6667C32.6667 27.2189 32.219 27.6667 31.6667 27.6667H30C29.4477 27.6667 29 27.2189 29 26.6667Z" /><path fill-rule="evenodd" clip-rule="evenodd" d="M29 31.6667C29 31.1144 29.4477 30.6667 30 30.6667H31.6667C32.219 30.6667 32.6667 31.1144 32.6667 31.6667C32.6667 32.2189 32.219 32.6667 31.6667 32.6667H30C29.4477 32.6667 29 32.2189 29 31.6667Z" /><path fill-rule="evenodd" clip-rule="evenodd" d="M7.3335 31.6667C7.3335 31.1144 7.78121 30.6667 8.3335 30.6667H10.0002C10.5524 30.6667 11.0002 31.1144 11.0002 31.6667C11.0002 32.2189 10.5524 32.6667 10.0002 32.6667H8.3335C7.78121 32.6667 7.3335 32.2189 7.3335 31.6667Z" /><path fill-rule="evenodd" clip-rule="evenodd" d="M7.3335 26.6667C7.3335 26.1144 7.78121 25.6667 8.3335 25.6667H10.0002C10.5524 25.6667 11.0002 26.1144 11.0002 26.6667C11.0002 27.2189 10.5524 27.6667 10.0002 27.6667H8.3335C7.78121 27.6667 7.3335 27.2189 7.3335 26.6667Z" /></symbol>
	<symbol id="Bank2x" viewBox="0 0 40 40" fill="currentColor" xmlns="http://www.w3.org/2000/svg" class="fill-current"><path fill-rule="evenodd" clip-rule="evenodd" d="M19.9998 0.741669L39.7498 11.275V17.25H0.249756V11.275L19.9998 0.741669ZM2.24976 12.475V15.25H37.7498V12.475L19.9998 3.00834L2.24976 12.475Z" /><path fill-rule="evenodd" clip-rule="evenodd" d="M5.99976 19V34.75H3.99976V19H5.99976Z" /><path fill-rule="evenodd" clip-rule="evenodd" d="M25.9998 19V34.75H23.9998V19H25.9998Z" /><path fill-rule="evenodd" clip-rule="evenodd" d="M15.9998 19V34.75H13.9998V19H15.9998Z" /><path fill-rule="evenodd" clip-rule="evenodd" d="M35.9998 19V34.75H33.9998V19H35.9998Z" /><path fill-rule="evenodd" clip-rule="evenodd" d="M19.9998 8.5C19.1713 8.5 18.4998 9.17157 18.4998 10C18.4998 10.8284 19.1713 11.5 19.9998 11.5C20.8282 11.5 21.4998 10.8284 21.4998 10C21.4998 9.17157 20.8282 8.5 19.9998 8.5ZM16.4998 10C16.4998 8.067 18.0668 6.5 19.9998 6.5C21.9328 6.5 23.4998 8.067 23.4998 10C23.4998 11.933 21.9328 13.5 19.9998 13.5C18.0668 13.5 16.4998 11.933 16.4998 10Z" /><path fill-rule="evenodd" clip-rule="evenodd" d="M0.249756 32.75H39.7498V39.75H0.249756V32.75ZM2.24976 34.75V37.75H37.7498V34.75H2.24976Z" /></symbol>
	<symbol id="SecurityShield2x" viewBox="0 0 40 40" fill="currentColor" xmlns="http://www.w3.org/2000/svg" class="fill-current"><path fill-rule="evenodd" clip-rule="evenodd" d="M19.649 2.39704C19.8753 2.31215 20.1248 2.31215 20.3512 2.39704L33.6845 7.39705C34.0748 7.54341 34.3334 7.91653 34.3334 8.33337V20C34.3334 25.4465 30.7183 29.867 27.3253 32.836C25.6077 34.3388 23.8949 35.5159 22.6134 36.3168C21.9716 36.7179 21.4354 37.0263 21.0573 37.2356C20.8682 37.3403 20.7185 37.4203 20.6147 37.4748C20.5627 37.5021 20.5223 37.5229 20.4941 37.5374L20.4612 37.5541L20.4518 37.5589L20.449 37.5603L20.448 37.5608C20.4476 37.561 20.4473 37.5611 20.0001 36.6667C19.5529 37.5611 19.5526 37.561 19.5522 37.5608L19.5512 37.5603L19.5483 37.5589L19.539 37.5541L19.506 37.5374C19.4779 37.5229 19.4374 37.5021 19.3855 37.4748C19.2817 37.4203 19.132 37.3403 18.9428 37.2356C18.5648 37.0263 18.0285 36.7179 17.3867 36.3168C16.1053 35.5159 14.3925 34.3388 12.6749 32.836C9.28183 29.867 5.66675 25.4465 5.66675 20V8.33337C5.66675 7.91653 5.92532 7.54341 6.31562 7.39705L19.649 2.39704ZM20.0001 36.6667L19.5529 37.5611C19.8344 37.7019 20.1658 37.7019 20.4473 37.5611L20.0001 36.6667ZM20.0001 35.5346C20.0284 35.5191 20.0579 35.5028 20.0887 35.4858C20.4398 35.2915 20.9452 35.0009 21.5534 34.6208C22.772 33.8592 24.3925 32.7446 26.0082 31.3308C29.2818 28.4664 32.3334 24.5536 32.3334 20V9.02638L20.0001 4.40137L7.66675 9.02638V20C7.66675 24.5536 10.7183 28.4664 13.9919 31.3308C15.6077 32.7446 17.2282 33.8592 18.4467 34.6208C19.055 35.0009 19.5604 35.2915 19.9115 35.4858C19.9422 35.5028 19.9718 35.5191 20.0001 35.5346Z"></path></symbol>
	<symbol id="SignalContactless2x" viewBox="0 0 40 40" fill="currentColor" xmlns="http://www.w3.org/2000/svg" class="fill-current"><g clip-path="url(#clip0_47_1635)"><path d="M6.3902 26.9C6.1902 26.9 5.9902 26.8 5.7902 26.7C5.3902 26.4 5.2902 25.7 5.5902 25.3C6.6902 23.8 7.2902 21.9 7.2902 20C7.2902 18.1 6.6902 16.2 5.5902 14.7C5.2902 14.3 5.3902 13.6 5.7902 13.3C6.1902 13 6.8902 13.1 7.1902 13.5C8.5902 15.4 9.29021 17.6 9.29021 20C9.29021 22.3 8.4902 24.6 7.1902 26.5C6.9902 26.8 6.6902 26.9 6.3902 26.9Z"></path><path d="M13.79 30.7999C13.59 30.7999 13.39 30.8 13.29 30.6C12.79 30.3 12.69 29.7 12.99 29.2C14.79 26.4 15.69 23.2 15.69 20C15.69 16.7 14.79 13.5 12.99 10.8C12.69 10.3 12.79 9.69995 13.29 9.39995C13.79 9.09995 14.39 9.19995 14.69 9.69995C16.69 12.8 17.69 16.3 17.69 20C17.69 23.7 16.69 27.1999 14.69 30.2999C14.49 30.5999 14.19 30.7999 13.79 30.7999Z"></path><path d="M21.1902 34.6C20.9902 34.6 20.7902 34.6 20.6902 34.5C20.1902 34.2 20.0902 33.6 20.3902 33.1C22.7902 29.1 23.9902 24.6 23.9902 20C23.9902 15.4 22.6902 10.9 20.3902 6.90004C20.0902 6.40004 20.2902 5.80004 20.6902 5.50004C21.1902 5.20004 21.7902 5.40004 22.0902 5.80004C24.6902 10.1 25.9902 14.9 25.9902 19.9C25.9902 24.9 24.5902 29.8 22.0902 34C21.8902 34.4 21.5902 34.6 21.1902 34.6Z"></path><path d="M28.6901 38.4001C28.4901 38.4001 28.3901 38.4001 28.1901 38.3001C27.6901 38.0001 27.5901 37.4001 27.7901 36.9001C30.7901 31.8001 32.3901 25.9001 32.3901 20.0001C32.3901 14.0001 30.7901 8.20006 27.7901 3.00006C27.4901 2.50006 27.6901 1.90006 28.1901 1.60006C28.6901 1.30006 29.2901 1.50006 29.5901 2.00006C32.7901 7.50006 34.3901 13.7001 34.3901 20.0001C34.3901 26.3001 32.6901 32.5001 29.5901 37.9001C29.2901 38.3001 28.9901 38.4001 28.6901 38.4001Z"></path></g><defs><clipPath id="clip0_47_1635"><rect width="28.9" height="36.9" fill="white" transform="translate(5.39014 1.5)"></rect></clipPath></defs></symbol>
	<symbol id="PosQr2x" viewBox="0 0 40 40" fill="currentColor" xmlns="http://www.w3.org/2000/svg" class="fill-current"><path fill-rule="evenodd" clip-rule="evenodd" d="M7.67896 4.50445C7.94106 2.16803 9.94616 0.666656 12.1592 0.666656H27.8402C30.0532 0.666656 32.0582 2.16798 32.3204 4.50438C32.5046 6.14709 32.6663 8.49266 32.6663 11.6667C32.6663 16.869 32.2303 28.5067 31.9892 34.5471C31.8822 37.2269 29.6773 39.3333 27.0003 39.3333H12.999C10.322 39.3333 8.11712 37.2269 8.01015 34.547C7.76904 28.5067 7.33301 16.869 7.33301 11.6667C7.33301 8.4927 7.49469 6.14715 7.67896 4.50445ZM12.1592 2.66666C10.8234 2.66666 9.80002 3.53715 9.6665 4.72741C9.49126 6.28956 9.33301 8.56033 9.33301 11.6667C9.33301 16.8197 9.7668 28.4106 10.0086 34.4673C10.0725 36.0695 11.3906 37.3333 12.999 37.3333H27.0003C28.6087 37.3333 29.9268 36.0695 29.9907 34.4673C30.2325 28.4106 30.6663 16.8197 30.6663 11.6667C30.6663 8.56029 30.5081 6.2895 30.3328 4.72735C30.1993 3.53712 29.1759 2.66666 27.8402 2.66666H12.1592Z"></path><path fill-rule="evenodd" clip-rule="evenodd" d="M10.6665 7.66666C10.6665 6.56208 11.5619 5.66666 12.6665 5.66666H27.3332C28.4377 5.66666 29.3332 6.56209 29.3332 7.66666V22.3333C29.3332 23.4379 28.4377 24.3333 27.3332 24.3333H12.6665C11.5619 24.3333 10.6665 23.4379 10.6665 22.3333V7.66666ZM27.3332 7.66666L12.6665 7.66666V22.3333H27.3332L27.3332 7.66666Z"></path><path fill-rule="evenodd" clip-rule="evenodd" d="M18.9998 13V9.00003H20.9998V13H18.9998Z"></path><path fill-rule="evenodd" clip-rule="evenodd" d="M21.9998 18V14H23.9998V18H21.9998Z"></path><path fill-rule="evenodd" clip-rule="evenodd" d="M25.9998 21L21.9998 21L21.9998 19L25.9998 19L25.9998 21Z"></path><path fill-rule="evenodd" clip-rule="evenodd" d="M18.9998 21V16H20.9998V21H18.9998Z"></path><path fill-rule="evenodd" clip-rule="evenodd" d="M20.9998 16H16.9998V14H20.9998V16Z"></path><path fill-rule="evenodd" clip-rule="evenodd" d="M25.9998 16L21.9998 16L21.9998 14L25.9998 14L25.9998 16Z"></path><path fill-rule="evenodd" clip-rule="evenodd" d="M15.9998 16H13.9998V14H15.9998V16Z"></path><path fill-rule="evenodd" clip-rule="evenodd" d="M15.4998 11.5H16.4998V10.5H15.4998V11.5ZM17.9998 13V9.00003H13.9998V13H17.9998Z"></path><path fill-rule="evenodd" clip-rule="evenodd" d="M15.4998 19.5H16.4998V18.5H15.4998V19.5ZM17.9998 21V17H13.9998V21H17.9998Z"></path><path fill-rule="evenodd" clip-rule="evenodd" d="M23.4998 11.5H24.4998V10.5H23.4998V11.5ZM25.9998 13V9.00003H21.9998V13H25.9998Z"></path><path d="M31.6665 7.5C32.587 7.5 33.3332 8.24619 33.3332 9.16666V33.3333C33.3332 34.2538 32.587 35 31.6665 35V7.5Z"></path><path d="M12.083 26.3333C12.083 26.0572 12.3069 25.8333 12.583 25.8333H14.9163C15.1925 25.8333 15.4163 26.0572 15.4163 26.3333V27C15.4163 27.2762 15.1925 27.5 14.9163 27.5H12.583C12.3069 27.5 12.083 27.2762 12.083 27V26.3333Z"></path><path d="M12.083 28.8333C12.083 28.5572 12.3069 28.3333 12.583 28.3333H14.9163C15.1925 28.3333 15.4163 28.5572 15.4163 28.8333V29.5C15.4163 29.7762 15.1925 30 14.9163 30H12.583C12.3069 30 12.083 29.7762 12.083 29.5V28.8333Z"></path><path d="M12.083 31.3333C12.083 31.0572 12.3069 30.8333 12.583 30.8333H14.9163C15.1925 30.8333 15.4163 31.0572 15.4163 31.3333V32C15.4163 32.2762 15.1925 32.5 14.9163 32.5H12.583C12.3069 32.5 12.083 32.2762 12.083 32V31.3333Z"></path><path d="M12.083 33.8333C12.083 33.5572 12.3069 33.3333 12.583 33.3333H14.9163C15.1925 33.3333 15.4163 33.5572 15.4163 33.8333V34.5C15.4163 34.7762 15.1925 35 14.9163 35H12.583C12.3069 35 12.083 34.7762 12.083 34.5V33.8333Z"></path><path d="M16.2498 26.3333C16.2498 26.0572 16.4736 25.8333 16.7498 25.8333H19.0831C19.3592 25.8333 19.5831 26.0572 19.5831 26.3333V27C19.5831 27.2762 19.3592 27.5 19.0831 27.5H16.7498C16.4736 27.5 16.2498 27.2762 16.2498 27V26.3333Z"></path><path d="M16.2498 28.8333C16.2498 28.5572 16.4736 28.3333 16.7498 28.3333H19.0831C19.3592 28.3333 19.5831 28.5572 19.5831 28.8333V29.5C19.5831 29.7762 19.3592 30 19.0831 30H16.7498C16.4736 30 16.2498 29.7762 16.2498 29.5V28.8333Z"></path><path d="M16.2498 31.3333C16.2498 31.0572 16.4736 30.8333 16.7498 30.8333H19.0831C19.3592 30.8333 19.5831 31.0572 19.5831 31.3333V32C19.5831 32.2762 19.3592 32.5 19.0831 32.5H16.7498C16.4736 32.5 16.2498 32.2762 16.2498 32V31.3333Z"></path><path d="M16.2498 33.8333C16.2498 33.5572 16.4736 33.3333 16.7498 33.3333H19.0831C19.3592 33.3333 19.5831 33.5572 19.5831 33.8333V34.5C19.5831 34.7762 19.3592 35 19.0831 35H16.7498C16.4736 35 16.2498 34.7762 16.2498 34.5V33.8333Z"></path><path d="M20.4163 26.3333C20.4163 26.0572 20.6401 25.8333 20.9163 25.8333H23.2496C23.5257 25.8333 23.7496 26.0572 23.7496 26.3333V27C23.7496 27.2762 23.5257 27.5 23.2496 27.5H20.9163C20.6401 27.5 20.4163 27.2762 20.4163 27V26.3333Z"></path><path d="M20.4163 28.8333C20.4163 28.5572 20.6401 28.3333 20.9163 28.3333H23.2496C23.5257 28.3333 23.7496 28.5572 23.7496 28.8333V29.5C23.7496 29.7762 23.5257 30 23.2496 30H20.9163C20.6401 30 20.4163 29.7762 20.4163 29.5V28.8333Z"></path><path d="M20.4163 31.3333C20.4163 31.0572 20.6401 30.8333 20.9163 30.8333H23.2496C23.5257 30.8333 23.7496 31.0572 23.7496 31.3333V32C23.7496 32.2762 23.5257 32.5 23.2496 32.5H20.9163C20.6401 32.5 20.4163 32.2762 20.4163 32V31.3333Z"></path><path d="M20.4163 33.8333C20.4163 33.5572 20.6401 33.3333 20.9163 33.3333H23.2496C23.5257 33.3333 23.7496 33.5572 23.7496 33.8333V34.5C23.7496 34.7762 23.5257 35 23.2496 35H20.9163C20.6401 35 20.4163 34.7762 20.4163 34.5V33.8333Z"></path><path d="M24.583 26.3333C24.583 26.0572 24.8069 25.8333 25.083 25.8333H27.4163C27.6925 25.8333 27.9163 26.0572 27.9163 26.3333V27C27.9163 27.2762 27.6925 27.5 27.4163 27.5H25.083C24.8069 27.5 24.583 27.2762 24.583 27V26.3333Z"></path><path d="M24.583 28.8333C24.583 28.5572 24.8069 28.3333 25.083 28.3333H27.4163C27.6925 28.3333 27.9163 28.5572 27.9163 28.8333V29.5C27.9163 29.7762 27.6925 30 27.4163 30H25.083C24.8069 30 24.583 29.7762 24.583 29.5V28.8333Z"></path><path d="M24.583 31.3333C24.583 31.0572 24.8069 30.8333 25.083 30.8333H27.4163C27.6925 30.8333 27.9163 31.0572 27.9163 31.3333V34C27.9163 34.5523 27.4686 35 26.9163 35H25.083C24.8069 35 24.583 34.7762 24.583 34.5V31.3333Z"></path></symbol>
	<symbol id="PosReceiptList2x" viewBox="0 0 40 40" fill="currentColor" xmlns="http://www.w3.org/2000/svg" class="fill-current"><path fill-rule="evenodd" clip-rule="evenodd" d="M4 0.666656H36V38.5352L30 34.5352L25 37.8685L20 34.5352L15 37.8685L10 34.5352L4 38.5352V0.666656ZM6 2.66666V34.7981L10 32.1315L15 35.4648L20 32.1315L25 35.4648L30 32.1315L34 34.7981V2.66666H6Z"></path><path fill-rule="evenodd" clip-rule="evenodd" d="M10.6667 10.6667H21.0001V12.6667H10.6667V10.6667Z"></path><path fill-rule="evenodd" clip-rule="evenodd" d="M25.6667 10.6667H29.3334V12.6667H25.6667V10.6667Z"></path><path fill-rule="evenodd" clip-rule="evenodd" d="M10.6667 17.3333H21.0001V19.3333H10.6667V17.3333Z"></path><path fill-rule="evenodd" clip-rule="evenodd" d="M25.6667 17.3333H29.3334V19.3333H25.6667V17.3333Z"></path><path fill-rule="evenodd" clip-rule="evenodd" d="M10.6667 24H21.0001V26H10.6667V24Z"></path><path fill-rule="evenodd" clip-rule="evenodd" d="M25.6667 24H29.3334V26H25.6667V24Z"></path></symbol>
	<symbol id="Calculator2x" viewBox="0 0 40 40" fill="currentColor" xmlns="http://www.w3.org/2000/svg" class="fill-current"><path fill-rule="evenodd" clip-rule="evenodd" d="M4 0.666656H37.6667V39.3333H4V0.666656ZM6 2.66666V37.3333H35.6667V2.66666H6Z"></path><path fill-rule="evenodd" clip-rule="evenodd" d="M10.6667 9H31.0001V17.6667H10.6667V9ZM12.6667 11V15.6667H29.0001V11H12.6667Z"></path><path fill-rule="evenodd" clip-rule="evenodd" d="M10.6667 22.3333H14.3334V24.3333H10.6667V22.3333Z"></path><path fill-rule="evenodd" clip-rule="evenodd" d="M19 22.3333H22.6667V24.3333H19V22.3333Z"></path><path fill-rule="evenodd" clip-rule="evenodd" d="M10.6667 29H14.3334V31H10.6667V29Z"></path><path fill-rule="evenodd" clip-rule="evenodd" d="M19 29H22.6667V31H19V29Z"></path><path fill-rule="evenodd" clip-rule="evenodd" d="M27.3333 22.3333H30.9999V24.3333H27.3333V22.3333Z"></path><path fill-rule="evenodd" clip-rule="evenodd" d="M27.3333 29H30.9999V31H27.3333V29Z"></path></symbol>
	<symbol id="DollarPhone2x" viewBox="0 0 40 40" fill="currentColor" xmlns="http://www.w3.org/2000/svg" class="fill-current"><path fill-rule="evenodd" clip-rule="evenodd" d="M10.0001 2.66666C9.38124 2.66666 8.78775 2.91249 8.35017 3.35007C7.91258 3.78766 7.66675 4.38115 7.66675 4.99999V35C7.66675 35.6188 7.91258 36.2123 8.35017 36.6499C8.78775 37.0875 9.38124 37.3333 10.0001 37.3333H30.0001C30.6189 37.3333 31.2124 37.0875 31.65 36.6499C32.0876 36.2123 32.3334 35.6188 32.3334 35V4.99999C32.3334 4.38115 32.0876 3.78766 31.65 3.35007C31.2124 2.91249 30.6189 2.66666 30.0001 2.66666H10.0001ZM6.93595 1.93586C7.74861 1.1232 8.85081 0.666656 10.0001 0.666656H30.0001C31.1494 0.666656 32.2516 1.1232 33.0642 1.93586C33.8769 2.74852 34.3334 3.85072 34.3334 4.99999V35C34.3334 36.1493 33.8769 37.2515 33.0642 38.0641C32.2516 38.8768 31.1494 39.3333 30.0001 39.3333H10.0001C8.85081 39.3333 7.74861 38.8768 6.93595 38.0641C6.12329 37.2515 5.66675 36.1493 5.66675 35V4.99999C5.66675 3.85072 6.12329 2.74852 6.93595 1.93586Z"></path><path fill-rule="evenodd" clip-rule="evenodd" d="M21 7.33331V32.6666H19V7.33331H21Z"></path><path fill-rule="evenodd" clip-rule="evenodd" d="M18.9345 9.82004C21.5627 9.63169 24.563 10.3068 26.1066 11.1553L26.983 11.637L26.0196 13.3897L25.1433 12.908C23.9853 12.2715 21.3797 11.6499 19.0775 11.8149C17.9347 11.8968 16.9922 12.1652 16.3614 12.6099C15.7842 13.0168 15.4133 13.6032 15.4133 14.5533C15.4133 15.717 15.8951 16.4484 16.6931 17.0336C17.559 17.6684 18.7564 18.0984 20.1328 18.5571C20.2267 18.5884 20.3215 18.6199 20.4172 18.6516C21.6469 19.0594 23.0114 19.5119 24.0731 20.196C25.2882 20.979 26.22 22.1387 26.22 23.9183C26.22 25.5063 25.6937 26.7701 24.7336 27.6779C23.8 28.5606 22.5507 29.0176 21.249 29.2133C18.6607 29.6022 15.512 29.0125 12.995 28.1077L12.054 27.7694L12.7305 25.8873L13.6716 26.2256C16.0179 27.0691 18.8126 27.5569 20.9518 27.2355C22.0138 27.0759 22.8243 26.7307 23.3595 26.2246C23.8683 25.7436 24.22 25.0321 24.22 23.9183C24.22 22.9963 23.8009 22.3999 22.9897 21.8772C22.1506 21.3365 21.0186 20.9598 19.7033 20.5221C19.6361 20.4997 19.5685 20.4772 19.5004 20.4545C18.1752 20.0128 16.671 19.4974 15.5105 18.6465C14.2824 17.7459 13.4133 16.4513 13.4133 14.5533C13.4133 12.9459 14.1061 11.7528 15.209 10.9753C16.2582 10.2356 17.6121 9.91481 18.9345 9.82004Z"></path></symbol>
	<symbol id="StoneLogo" viewBox="0 0 92 24" fill="currentColor" xmlns="http://www.w3.org/2000/svg" class="fill-current"><path d="M51.9067 23.3794H56.012C56.0519 23.3822 56.092 23.377 56.1298 23.3641C56.1676 23.3512 56.2023 23.3308 56.2319 23.3043C56.2614 23.2778 56.2852 23.2457 56.3017 23.2098C56.3182 23.174 56.3271 23.1353 56.3279 23.096V11.9579C56.3279 8.79944 57.9074 7.1352 60.6344 7.1352C63.3614 7.1352 64.912 8.79944 64.912 11.9579V23.0974C64.9128 23.1367 64.9217 23.1754 64.9382 23.2113C64.9547 23.2471 64.9785 23.2792 65.008 23.3057C65.0376 23.3322 65.0723 23.3526 65.1101 23.3655C65.1479 23.3784 65.188 23.3836 65.2279 23.3808H69.3332C69.3731 23.3836 69.4132 23.3784 69.451 23.3655C69.4888 23.3526 69.5235 23.3322 69.5531 23.3057C69.5826 23.2792 69.6064 23.2471 69.6229 23.2113C69.6394 23.1754 69.6483 23.1367 69.6491 23.0974V11.9862C69.6491 7.21951 66.9509 3.04582 60.6337 3.04582C54.3164 3.04582 51.5908 7.21951 51.5908 11.9862V23.0974C51.5918 23.1366 51.6008 23.1752 51.6174 23.2108C51.634 23.2465 51.6578 23.2784 51.6873 23.3048C51.7169 23.3312 51.7515 23.3514 51.7892 23.3642C51.827 23.377 51.8669 23.3822 51.9067 23.3794Z" fill="currentColor"></path><path d="M23.6564 23.6337C25.1493 23.6337 26.1252 23.4644 26.5558 23.295C26.62 23.2698 26.6756 23.2273 26.7163 23.1724C26.757 23.1175 26.7811 23.0525 26.7858 22.9847V19.6548C26.7858 19.4572 26.6993 19.3445 26.4411 19.3445C26.2399 19.3445 25.6658 19.4572 25.2063 19.4572C23.4263 19.4572 22.6517 18.8089 22.6517 17.2857V7.89679H26.4411C26.5246 7.89605 26.6045 7.86312 26.6636 7.80508C26.7227 7.74705 26.7562 7.66855 26.757 7.58647V3.9484C26.7562 3.86632 26.7227 3.78782 26.6636 3.72978C26.6045 3.67175 26.5246 3.63882 26.4411 3.63808H22.5082V0.479645C22.5082 0.140988 22.3639 0 22.1057 0H18.2298C17.9146 0 17.7711 0.141697 17.7711 0.479645V17.7667C17.7711 21.9695 20.1534 23.6337 23.6564 23.6337Z" fill="currentColor"></path><path d="M7.17845 23.859C11.8008 23.859 15.1027 21.0668 15.1027 17.4287C15.1027 13.3394 12.3461 12.1555 8.58558 11.3655L6.71902 10.9709C5.31261 10.6606 4.53729 10.0116 4.53729 8.91202C4.53729 7.50214 5.97254 6.74051 7.95378 6.74051C10.7385 6.74051 12.6331 7.98107 12.9202 7.98107C13 7.97587 13.0768 7.94954 13.1426 7.90488C13.2084 7.86022 13.2606 7.79891 13.2938 7.72744L14.0403 4.99197C14.1845 4.62497 14.155 4.54066 13.896 4.39967C12.2307 3.55374 10.4507 3.0741 7.92421 3.0741C3.24483 3.0741 0 5.72525 0 9.25068C0 12.5806 2.61303 14.4113 6.34687 15.202L8.24155 15.5966C9.76335 15.9069 10.6216 16.4992 10.6216 17.7681C10.6216 19.0653 9.58809 20.1933 7.14744 20.1933C3.7021 20.1933 1.34799 18.84 0.975109 18.84C0.745035 18.84 0.659209 18.9527 0.573382 19.319L0.0851052 21.6039C-0.0591418 22.0828 0.0851055 22.3931 0.401006 22.5341C1.57878 23.1824 4.79405 23.859 7.17845 23.859Z" fill="currentColor"></path><path d="M38.4997 19.939C35.485 19.939 32.7298 17.7108 32.7298 13.5087C32.7298 9.30671 35.4857 7.13237 38.4997 7.13237C41.5426 7.13237 44.2415 9.30388 44.2415 13.5087C44.2415 17.7391 41.5426 19.939 38.4997 19.939ZM38.4997 24C44.5285 24 48.9208 19.5727 48.9208 13.5087C48.9208 7.44481 44.5285 3.04582 38.4997 3.04582C32.4991 3.04582 28.0779 7.44552 28.0779 13.5087C28.0779 19.572 32.4991 24 38.4997 24Z" fill="currentColor"></path><path d="M92 13.2834C92 7.04876 88.3534 3.04582 82.5518 3.04582C77.0971 3.04582 72.3889 7.16354 72.3889 13.4244C72.3889 20.1083 77.2118 24 82.3795 24C86.7148 24 89.216 22.3216 90.7631 20.2776C91.0624 19.8816 91.1237 19.7108 91.1237 19.6003C91.1237 19.4898 91.0516 19.4034 90.7912 19.1752L88.9824 17.6243C88.5496 17.2581 88.4054 17.1447 88.2611 17.1447C88.1169 17.1447 88.031 17.2297 87.9164 17.3707C86.6816 19.0066 84.9593 19.9368 82.634 19.9368C79.7008 19.9368 77.7462 17.9793 77.25 14.8039H90.4984C91.4223 14.806 92 14.5205 92 13.2834ZM82.3816 6.96587C85.5147 6.96587 87.1728 9.04245 87.2629 11.3372H77.32C77.8645 8.87312 79.5674 6.96587 82.3816 6.96587Z" fill="currentColor"></path></symbol>
	<symbol id="ArrowRight2x" viewBox="0 0 40 40" fill="currentColor" xmlns="http://www.w3.org/2000/svg" class="fill-current"><path fill-rule="evenodd" clip-rule="evenodd" d="M7.33325 20C7.33325 19.4477 7.78097 19 8.33325 19H31.6666C32.2189 19 32.6666 19.4477 32.6666 20C32.6666 20.5523 32.2189 21 31.6666 21H8.33325C7.78097 21 7.33325 20.5523 7.33325 20Z"></path><path fill-rule="evenodd" clip-rule="evenodd" d="M19.2929 7.62627C19.6834 7.23574 20.3166 7.23574 20.7071 7.62627L32.3738 19.2929C32.7643 19.6835 32.7643 20.3166 32.3738 20.7071L20.7071 32.3738C20.3166 32.7643 19.6834 32.7643 19.2929 32.3738C18.9024 31.9833 18.9024 31.3501 19.2929 30.9596L30.2525 20L19.2929 9.04048C18.9024 8.64996 18.9024 8.01679 19.2929 7.62627Z"></path></symbol>
	<symbol id="ArrowLeft2x" viewBox="0 0 40 40" fill="currentColor" xmlns="http://www.w3.org/2000/svg" class="fill-current"><path fill-rule="evenodd" clip-rule="evenodd" d="M7.33325 20C7.33325 19.4477 7.78097 19 8.33325 19H31.6666C32.2189 19 32.6666 19.4477 32.6666 20C32.6666 20.5523 32.2189 21 31.6666 21H8.33325C7.78097 21 7.33325 20.5523 7.33325 20Z"></path><path fill-rule="evenodd" clip-rule="evenodd" d="M20.707 7.62627C21.0976 8.01679 21.0976 8.64996 20.707 9.04048L9.74747 20L20.707 30.9596C21.0976 31.3501 21.0976 31.9833 20.707 32.3738C20.3165 32.7643 19.6833 32.7643 19.2928 32.3738L7.62615 20.7071C7.23562 20.3166 7.23562 19.6835 7.62615 19.2929L19.2928 7.62627C19.6833 7.23574 20.3165 7.23574 20.707 7.62627Z"></path></symbol>
	<symbol id="WhatsAppButton" viewBox="0 0 24 24" fill="currentColor" xmlns="http://www.w3.org/2000/svg" class="fill-current"><g clipPath="url(#clip0_47_1040)"><path d="M0.0536804 24L1.74139 17.8373C0.70037 16.0338 0.15258 13.9878 0.15343 11.8918C0.15606 5.33464 5.49276 0 12.0499 0C15.2322 0.00127 18.2192 1.23986 20.4652 3.48773C22.7113 5.73561 23.9475 8.7236 23.9463 11.9013C23.9436 18.4584 18.6065 23.7938 12.05 23.7938H12.05H12.0451C10.0541 23.793 8.09773 23.2937 6.36015 22.3463L0.0536804 24ZM6.65232 20.1932L7.01339 20.4074C8.53149 21.3081 10.2717 21.7845 12.0459 21.7852H12.05C17.4999 21.7852 21.9355 17.351 21.9377 11.9005C21.9387 9.25935 20.9112 6.77584 19.0444 4.90748C17.1775 3.03912 14.6949 2.00959 12.0539 2.00858C6.59986 2.00858 2.16418 6.44251 2.162 11.8926C2.16124 13.7602 2.68401 15.5792 3.67378 17.153L3.90891 17.527L2.91 21.1746L6.65232 20.1932Z" /><path fillRule="evenodd" clipRule="evenodd" d="M9.07673 6.92047C8.83547 6.34102 8.5904 6.41942 8.40794 6.41034C8.23476 6.40172 8.0364 6.3999 7.83824 6.3999C7.64008 6.3999 7.31806 6.47426 7.04558 6.77173C6.77312 7.06922 6.00525 7.78814 6.00525 9.25073C6.00525 10.7133 7.07036 12.1263 7.21899 12.3247C7.3676 12.523 9.31501 15.5245 12.2968 16.8116C13.006 17.1178 13.5597 17.3006 13.9914 17.4376C14.7035 17.6637 15.3515 17.6318 15.8637 17.5553C16.4347 17.47 17.6223 16.8364 17.87 16.1423C18.1177 15.4482 18.1177 14.8532 18.0434 14.7293C17.9691 14.6053 17.7709 14.531 17.4737 14.3822C17.1764 14.2335 15.715 13.5146 15.4425 13.4154C15.1701 13.3163 14.9719 13.2667 14.7738 13.5642C14.5756 13.8616 14.006 14.531 13.8326 14.7293C13.6592 14.9276 13.4858 14.9524 13.1886 14.8036C12.8913 14.6549 11.9335 14.3411 10.7982 13.3288C9.91455 12.5409 9.31794 11.5677 9.14455 11.2702C8.97116 10.9727 9.12611 10.8119 9.27491 10.6637C9.40861 10.5306 9.57214 10.3167 9.72077 10.1432C9.86938 9.96962 9.91893 9.84567 10.018 9.64737C10.1171 9.44904 10.0675 9.27551 9.99323 9.12677C9.91891 8.97804 9.32445 7.51542 9.07673 6.92047Z" /></g><defs><clipPath id="clip0_47_1040"><rect width="24" height="24" fill="white" /></clipPath></defs></symbol>
	<symbol id="Rate" viewBox="0 0 24 24" fill="currentColor" xmlns="http://www.w3.org/2000/svg" class="fill-current"><path fill-rule="evenodd" clip-rule="evenodd" d="M19.7071 4.29289C20.0976 4.68342 20.0976 5.31658 19.7071 5.70711L5.70711 19.7071C5.31658 20.0976 4.68342 20.0976 4.29289 19.7071C3.90237 19.3166 3.90237 18.6834 4.29289 18.2929L18.2929 4.29289C18.6834 3.90237 19.3166 3.90237 19.7071 4.29289Z"></path><path fill-rule="evenodd" clip-rule="evenodd" d="M6.5 5C5.67157 5 5 5.67157 5 6.5C5 7.32843 5.67157 8 6.5 8C7.32843 8 8 7.32843 8 6.5C8 5.67157 7.32843 5 6.5 5ZM3 6.5C3 4.567 4.567 3 6.5 3C8.433 3 10 4.567 10 6.5C10 8.433 8.433 10 6.5 10C4.567 10 3 8.433 3 6.5Z"></path><path fill-rule="evenodd" clip-rule="evenodd" d="M17.5 16C16.6716 16 16 16.6716 16 17.5C16 18.3284 16.6716 19 17.5 19C18.3284 19 19 18.3284 19 17.5C19 16.6716 18.3284 16 17.5 16ZM14 17.5C14 15.567 15.567 14 17.5 14C19.433 14 21 15.567 21 17.5C21 19.433 19.433 21 17.5 21C15.567 21 14 19.433 14 17.5Z"></path></symbol>
	<symbol id="DolarOff" viewBox="0 0 24 24" fill="currentColor" xmlns="http://www.w3.org/2000/svg" class="fill-current"><g clip-path="url(#clip0_47_1153)"><path fill-rule="evenodd" clip-rule="evenodd" d="M12 3C12.5523 3 13 3.44772 13 4V20C13 20.5523 12.5523 21 12 21C11.4477 21 11 20.5523 11 20V4C11 3.44772 11.4477 3 12 3Z" /><path fill-rule="evenodd" clip-rule="evenodd" d="M1.29292 1.29289C1.68345 0.902369 2.31661 0.902369 2.70714 1.29289L22.7071 21.2929C23.0977 21.6834 23.0977 22.3166 22.7071 22.7071C22.3166 23.0976 21.6834 23.0976 21.2929 22.7071L1.29292 2.70711C0.902398 2.31658 0.902398 1.68342 1.29292 1.29289Z" /><path fill-rule="evenodd" clip-rule="evenodd" d="M7.95236 7.04991C8.57131 6.38675 9.42614 6 10.3333 6H15.3333C15.8856 6 16.3333 6.44772 16.3333 7C16.3333 7.55228 15.8856 8 15.3333 8H10.3333C10.0028 8 9.67069 8.14003 9.41447 8.41455C9.15608 8.6914 9 9.08077 9 9.5C9 9.91923 9.15608 10.3086 9.41447 10.5854C9.67069 10.86 10.0028 11 10.3333 11H13.6667C14.5739 11 15.4287 11.3868 16.0476 12.0499C16.6644 12.7107 17 13.5932 17 14.5C17 15.4068 16.6644 16.2893 16.0476 16.9501C15.4287 17.6132 14.5739 18 13.6667 18H8C7.44772 18 7 17.5523 7 17C7 16.4477 7.44772 16 8 16H13.6667C13.9972 16 14.3293 15.86 14.5855 15.5854C14.8439 15.3086 15 14.9192 15 14.5C15 14.0808 14.8439 13.6914 14.5855 13.4146C14.3293 13.14 13.9972 13 13.6667 13H10.3333C9.42614 13 8.57131 12.6132 7.95236 11.9501C7.33559 11.2893 7 10.4068 7 9.5C7 8.59315 7.33559 7.71075 7.95236 7.04991Z" /><path fill-rule="evenodd" clip-rule="evenodd" d="M12 2C10.1586 2 8.43623 2.49679 6.95637 3.36302C6.47973 3.64202 5.86718 3.4818 5.58818 3.00517C5.30918 2.52853 5.4694 1.91597 5.94603 1.63698C7.72404 0.59623 9.79391 0 12 0C18.6274 0 24 5.37258 24 12C24 14.1841 23.4156 16.2347 22.394 18.0007C22.1175 18.4788 21.5057 18.6421 21.0277 18.3656C20.5496 18.0891 20.3862 17.4773 20.6628 16.9993C21.5131 15.5294 22 13.8231 22 12C22 6.47715 17.5228 2 12 2ZM2.97233 5.63439C3.45039 5.91094 3.61375 6.52267 3.33721 7.00073C2.48695 8.47057 2 10.1769 2 12C2 17.5228 6.47715 22 12 22C13.8231 22 15.5294 21.5131 16.9993 20.6628C17.4773 20.3862 18.0891 20.5496 18.3656 21.0277C18.6421 21.5057 18.4788 22.1175 18.0007 22.394C16.2347 23.4156 14.1841 24 12 24C5.37258 24 0 18.6274 0 12C0 9.81594 0.584388 7.76533 1.606 5.99927C1.88254 5.52121 2.49427 5.35785 2.97233 5.63439Z" /></g></symbol>
	<symbol id="Sliders" viewBox="0 0 24 24" fill="currentColor" xmlns="http://www.w3.org/2000/svg" class="fill-current"><path fill-rule="evenodd" clip-rule="evenodd" d="M4 13C4.55228 13 5 13.4477 5 14V21C5 21.5523 4.55228 22 4 22C3.44772 22 3 21.5523 3 21V14C3 13.4477 3.44772 13 4 13Z"></path><path fill-rule="evenodd" clip-rule="evenodd" d="M4 2C4.55228 2 5 2.44772 5 3V10C5 10.5523 4.55228 11 4 11C3.44772 11 3 10.5523 3 10V3C3 2.44772 3.44772 2 4 2Z" ></path><path fill-rule="evenodd" clip-rule="evenodd" d="M12 11C12.5523 11 13 11.4477 13 12V21C13 21.5523 12.5523 22 12 22C11.4477 22 11 21.5523 11 21V12C11 11.4477 11.4477 11 12 11Z" ></path><path fill-rule="evenodd" clip-rule="evenodd" d="M12 2C12.5523 2 13 2.44772 13 3V8C13 8.55228 12.5523 9 12 9C11.4477 9 11 8.55228 11 8V3C11 2.44772 11.4477 2 12 2Z" ></path><path fill-rule="evenodd" clip-rule="evenodd" d="M20 15C20.5523 15 21 15.4477 21 16V21C21 21.5523 20.5523 22 20 22C19.4477 22 19 21.5523 19 21V16C19 15.4477 19.4477 15 20 15Z" ></path><path fill-rule="evenodd" clip-rule="evenodd" d="M20 2C20.5523 2 21 2.44772 21 3V12C21 12.5523 20.5523 13 20 13C19.4477 13 19 12.5523 19 12V3C19 2.44772 19.4477 2 20 2Z" ></path><path fill-rule="evenodd" clip-rule="evenodd" d="M0 14C0 13.4477 0.447715 13 1 13H7C7.55228 13 8 13.4477 8 14C8 14.5523 7.55228 15 7 15H1C0.447715 15 0 14.5523 0 14Z" ></path><path fill-rule="evenodd" clip-rule="evenodd" d="M8 8C8 7.44772 8.44772 7 9 7H15C15.5523 7 16 7.44772 16 8C16 8.55228 15.5523 9 15 9H9C8.44772 9 8 8.55228 8 8Z" ></path><path fill-rule="evenodd" clip-rule="evenodd" d="M16 16C16 15.4477 16.4477 15 17 15H23C23.5523 15 24 15.4477 24 16C24 16.5523 23.5523 17 23 17H17C16.4477 17 16 16.5523 16 16Z" ></path></symbol>
	<symbol id="Awards" viewBox="0 0 24 24" fill="currentColor" xmlns="http://www.w3.org/2000/svg" class="fill-current"><g clip-path="url(#clip0_4974_59296)"><path fill-rule="evenodd" clip-rule="evenodd" d="M12 2C8.68629 2 6 4.68629 6 8C6 11.3137 8.68629 14 12 14C15.3137 14 18 11.3137 18 8C18 4.68629 15.3137 2 12 2ZM4 8C4 3.58172 7.58172 0 12 0C16.4183 0 20 3.58172 20 8C20 12.4183 16.4183 16 12 16C7.58172 16 4 12.4183 4 8Z" ></path><path fill-rule="evenodd" clip-rule="evenodd" d="M15.6585 12.8897C16.206 12.817 16.7087 13.202 16.7813 13.7495L17.9913 22.8695C18.0418 23.2501 17.8699 23.626 17.549 23.8368C17.2281 24.0476 16.8148 24.056 16.4855 23.8585L12 21.1672L7.51452 23.8585C7.18525 24.056 6.77193 24.0476 6.45099 23.8368C6.13004 23.6259 5.95817 23.25 6.00873 22.8693L7.21873 13.7593C7.29145 13.2118 7.79421 12.827 8.34169 12.8997C8.88917 12.9724 9.27403 13.4752 9.20132 14.0226L8.26447 21.0761L11.4855 19.1435C11.8022 18.9535 12.1978 18.9535 12.5145 19.1435L15.7359 21.0763L14.7987 14.0125C14.7261 13.465 15.111 12.9623 15.6585 12.8897Z" ></path></g><defs><clipPath id="clip0_4974_59296"><rect width="24" height="24" fill="white"></rect></clipPath></defs></symbol>
</svg>